<?xml version="1.0" standalone="no"?><!DOCTYPE svg PUBLIC "-//W3C//DTD SVG 1.1//EN" "http://www.w3.org/Graphics/SVG/1.1/DTD/svg11.dtd"><svg t="1733012734600" class="icon" viewBox="0 0 3735 1024" version="1.1" xmlns="http://www.w3.org/2000/svg" p-id="4323" width="116.71875" height="32" xmlns:xlink="http://www.w3.org/1999/xlink"><path d="M1359.238285 564.160168c-20.273136-6.99566-42.973337-27.839869-57.984431-53.232278-10.197754-17.356578-19.600084-45.543171-23.821954-71.955355-4.344243-27.146422-4.833736-110.971963-0.856612-143.747546 1.509268-12.543238 2.182319-25.086476 1.488872-27.88066-2.549439-10.197754-3.202095-10.197754-184.722122-8.770069-92.616005 0.713843-171.322273 1.835596-174.748719 2.529043-5.567974 1.080962-7.342383 0.163164-14.276857-7.301592-8.790464-9.463516-11.849791-14.093297-10.340522-15.602564 0.550679-0.550679 20.089576 0 43.442433 1.182939s107.892241 2.161924 187.903822 2.161924c158.840222 0 151.620212 0.509888 167.447127-11.931372a105.893481 105.893481 0 0 1 13.868946-9.137188c6.22063-3.181699 6.648936-3.100117 14.276856 2.427065a97.653696 97.653696 0 0 1 15.194654 14.725557c17.111832 21.109352 17.376973 24.47461 2.529043 32.46965-18.070421 9.647076-22.924552 29.430719-23.026529 93.819341 0 60.921385 5.935093 94.900302 20.721837 117.253779 7.158824 10.789224 19.763248 20.150763 24.617379 18.355958s11.258321-17.213809 21.06856-51.661823c9.259561-32.632814 11.421485-37.364572 15.194654-33.591403 1.488872 1.488872 0.754634 15.928892-2.386274 47.460349l-4.527803 45.339216 5.445601 21.048165a230.469249 230.469249 0 0 1 5.445601 24.47461c0 1.896782-2.671812 6.118653-5.955489 9.40233-4.976504 4.976504-7.607525 5.955489-15.806519 5.894302a75.789711 75.789711 0 0 1-20.191554-3.650796zM12.257701 559.428409c2.81458-2.325088 14.399229-9.953008 25.779923-16.969063s29.716256-19.498106 40.791017-27.778683c26.514161-19.804039 75.871293-69.34473 92.228491-92.6364 25.494386-36.242819 46.236618-86.415771 56.373186-136.384767 6.118653-30.328122 6.118653-28.859645 1.019776-33.917732-3.936333-3.936333-6.710122-4.079102-84.131474-3.956728-44.033903 0-84.60057 0.877007-90.168544 1.794805l-10.197755 1.652036-9.708262-10.442501c-12.706402-13.644595-12.726797-16.316407-0.122373-14.745953 5.323228 0.673052 50.988772 1.774409 101.467656 2.427066 78.991805 1.040171 92.330468 0.775029 95.858891-1.8152s4.079102-6.8121 5.710743-38.404743c0.958589-19.477711 1.448081-50.988772 1.121753-69.773036-0.611865-33.265075-0.775029-34.46841-5.445601-38.241579s-9.116792-3.875147-92.799565-3.752773c-48.398542 0-95.145048 0.795425-103.874326 1.590849s-16.663131 0.958589-17.560533 0.36712C13.746573 75.259427 0 57.209402 1.509268 55.822507c0.917798-0.877007 14.052506-0.795425 29.185973 0.18356s115.316206 1.855991 222.596582 1.896782c187.63868 0 195.246205 0 199.875986-3.732378 2.610625-2.039551 9.81024-11.462276 16.051265-20.783023 13.399849-20.109972 16.112452-22.210709 23.597604-18.192794s30.838009 25.677946 40.056779 37.364572 10.197754 18.927032 2.59023 21.802799c-3.181699 1.203335-50.397302 2.039551-119.823614 2.039551-63.022122 0-115.683326 0.713843-117.029429 1.570454a16.581549 16.581549 0 0 0-4.40543 6.791704c-1.855991 4.874527-6.016675 116.458355-4.915318 132.081315 0.877007 12.787984-0.713843 12.482051 64.898509 12.482051 32.87756 0 62.083929-0.877007 64.878113-2.03955s9.565494-8.545718 15.398609-17.193414c11.237925-16.642735 17.173018-22.006754 22.333082-20.130368 11.135948 4.079102 52.090129 38.384347 54.394822 45.604358a7.281197 7.281197 0 0 1-2.039551 7.648316c-2.957349 2.977744-13.787364 3.467236-96.572734 4.364639l-93.248266 1.019775-0.673051 4.81334c-1.631641 11.482671 26.350997 71.669818 49.13278 105.689527 37.038244 55.271829 77.502933 94.635161 123.88232 120.619038 7.301592 4.079102 26.106251 12.971544 41.810793 19.763248 17.866466 7.729898 28.553712 13.461036 28.553713 15.317027s-5.771929 4.22187-19.375734 7.199615c-23.821954 5.22125-36.711916 11.747813-49.887414 25.229244-5.567974 5.710742-11.564253 10.360918-13.338663 10.360919-10.381314 0-67.040037-55.333015-92.554819-90.392895-43.381247-59.616072-63.633987-104.4454-79.726043-176.502733-4.079102-18.172398-7.872666-34.325641-8.464136-35.8757a7.464756 7.464756 0 0 0-13.848551 0.59147c-0.550679 1.876387-3.854751 17.62172-7.321987 34.998693a538.80855 538.80855 0 0 1-13.420245 52.90595c-22.027149 65.877493-70.180946 126.452154-135.466969 170.38408-32.530836 21.904776-98.082002 50.172952-115.764908 49.948601H7.281197z m2667.283843-1.121752a46.90967 46.90967 0 0 1-6.485772-11.074762c-5.669951-13.522222-21.007374-24.596984-47.562326-34.305245-14.134088-5.180459-18.865846-9.137188-15.255841-12.767589 1.672432-1.652036 11.727418-1.692827 37.548132 0 40.668644 2.488252 46.460969 2.039551 53.028323-4.956109l4.752153-5.058086 1.142149-89.067186c0.632261-48.949221 0.367119-91.963349-0.550679-95.491772s-3.283677-7.036451-5.22125-7.791085-54.31324-1.142148-116.397169-0.897402l-112.84835 0.448701-7.893062-8.974024c-11.564253-13.175499-10.870806-14.827535 5.690347-13.297871 7.566734 0.713843 61.961556 1.835596 120.84339 2.529043 106.342183 1.223731 107.117212 1.203335 110.869985-2.957349 5.710742-6.363399 6.975264-46.90967 2.40667-77.502933-1.896782-12.767588-2.875767-25.47399-2.182319-28.268176 1.264522-5.017295 1.468477-5.078482 16.601944-3.650796l15.337423 1.427686 7.240405-8.158204c10.197754-11.523462 50.580862-67.060433 56.087649-77.278582 2.549439-4.711363 3.875147-9.300352 2.977745-10.197755-2.039551-2.039551-204.322207-2.039551-231.774562 0l-19.375733 1.386895-8.668091-10.381314c-4.772549-5.690347-8.668091-11.21753-8.668092-12.237305s14.868326-1.244126 37.221804-0.305933c20.395509 0.877007 83.438026 1.570454 139.91319 1.570454h102.670991l11.686626-13.053125c9.891822-11.074761 12.44126-12.869566 16.663131-11.809 7.668711 1.917178 41.260114 24.780543 48.459729 32.979538 11.421485 13.012335 8.03583 18.355958-16.43878 26.187833a110.829195 110.829195 0 0 0-29.553092 14.868326c-25.943087 18.519122-89.332328 66.489359-89.923798 68.059813-0.326328 0.877007 2.651416 3.508028 6.62854 5.833115s7.22001 5.547578 7.22001 7.097637-3.304072 7.179219-7.362779 12.482052l-7.362778 9.647075-0.285537 33.632194c-0.285537 33.244679-0.224351 33.69338 4.62978 37.650109s7.974644 3.956729 76.116039 3.40605l71.221116-0.591469 8.300972-9.177979c23.923932-26.371393 26.269415-28.553712 30.939987-28.553713 10.197754 0 58.351551 39.342936 58.351551 47.603118s-1.692827 8.464136-124.147462 9.096397c-107.198794 0.550679-117.763668 0.897402-121.332882 4.079101s-3.875147 6.465376-2.590229 97.633301c1.386895 98.489912 0.836216 107.749473-7.260801 123.759947-8.688487 17.173018-34.815133 36.120446-54.048099 39.200168-6.118653 0.978984-8.566114 0.428306-11.278716-2.569834z m-1807.65394-0.713843c-2.202715-3.548819 2.141528-6.852891 25.535176-19.375734a405.421923 405.421923 0 0 0 73.423832-49.418317c31.715016-26.514161 61.186526-59.9424 61.186526-69.34473 0-5.792324-22.65941-26.514161-57.107424-52.028943-19.620479-14.582789-38.180392-28.839249-41.219323-31.653829-5.731138-5.323228-5.792324-8.606905-0.163165-8.606905 6.016675 0 50.254534 18.559913 88.842837 37.262594l38.28237 18.559913 5.262041-3.956728c11.62544-8.668091 35.69214-56.026463 43.891135-86.313793 2.325088-8.525323 5.017295-16.316407 5.996279-17.397369 2.712603-2.875767 34.672365 13.807759 45.849104 23.923931 11.870186 10.728038 11.62544 16.43878-1.040171 23.536417-6.526563 3.671192-13.338663 12.237305-33.713776 42.667405-14.684766 21.904776-25.535177 40.09757-25.535177 42.830568 0 3.365259 5.465996 10.197754 18.090816 22.43506 31.959762 31.266315 45.012888 50.417698 45.09447 66.244612 0 13.991319-4.466616 19.314547-21.06856 24.719357-6.261421 2.039551-18.355958-2.427066-24.882521-9.055606A329.020347 329.020347 0 0 1 1097.298766 483.699886c-14.664371-21.884381-25.06608-32.102531-32.632814-32.102531-2.039551 0-13.03273 7.893062-24.698961 17.519742-41.749606 34.549992-96.674711 67.468343-136.405162 81.806385-22.43506 8.158203-29.818234 9.647076-31.65383 6.648936z m1050.715424-31.490666c-1.40729-3.671192 0.122373-4.527803 27.329982-15.378213 56.332395-22.43506 95.858891-46.624133 126.452154-77.278583 29.104391-29.24716 45.522776-58.086409 55.414597-97.347763 6.546958-26.024669 6.587749-79.318134 0-105.179639-14.541998-57.760081-51.13154-96.81748-104.588169-111.624619-17.274996-4.792945-58.106804-9.483912-65.775516-7.546339-7.016055 1.754014-7.444361 4.079102-4.262661 22.720597 5.017295 29.675465 5.873907 72.97513 1.896782 96.980644-9.177979 55.292224-40.444294 120.333502-85.885487 178.562679-37.405363 47.949841-72.240892 65.265628-101.834775 50.988772q-22.231105-10.891202-38.751467-44.992492c-14.521602-30.001793-18.355958-48.745266-18.355958-89.740239 0-29.287951 0.734238-37.242199 4.527803-51.213122 12.237305-45.278029 33.713776-79.542484 72.75078-116.519541 30.593263-29.002413 62.063533-48.051819 98.020815-59.473304 31.28671-9.912217 43.340456-11.421485 90.760014-11.339903 38.506721 0 46.09385 0.611865 62.206302 4.650176 56.53635 14.113692 106.056645 55.924485 128.940406 108.646875 11.278716 26.06546 15.194654 44.543791 16.316407 76.931859 1.244126 34.407223-1.060566 51.641428-10.952388 81.908363-12.380074 37.854064-30.715636 66.734105-60.350311 95.104258a213.235044 213.235044 0 0 1-56.658723 40.09757c-40.791017 20.681046-133.345836 41.627233-137.363751 31.123546z m-99.937993-125.615938c19.722457-9.524703 57.596917-60.309519 82.866952-111.012754 22.43506-45.176052 33.69338-86.354584 35.488185-130.531256 1.203335-29.716256-0.285537-41.056159-5.81272-44.543791-6.118653-3.793565-34.815133 3.58961-57.739685 14.786743-55.700134 27.207609-99.734038 76.646322-117.294571 131.734591-6.506167 20.395509-7.995039 61.676018-3.059326 83.886728 6.62854 29.818234 18.355958 48.663684 34.672365 56.108044a33.550612 33.550612 0 0 0 30.899195-0.428305zM853.633623 209.013174c-0.59147-0.958589 6.40419-9.851031 15.520982-19.783644 47.72549-51.865779 79.868812-99.937993 108.932413-162.715369 11.401089-24.637775 12.726797-26.514161 17.642115-26.28981 7.689107 0.509888 39.118586 15.990079 47.623513 23.454835 9.606285 8.443741 8.770069 13.359058-3.100118 17.988838a51.274309 51.274309 0 0 0-16.459175 11.829395c-8.974024 10.197754-17.723697 26.106251-15.500587 28.349758s228.205347 3.426445 251.598996 1.590849l16.744713-1.325708 14.460415-17.152623c10.401709-12.359678 15.765728-17.173018 19.130988-17.173018 9.443121 0 44.584582 31.021569 47.276789 41.68842 1.794805 7.199615-0.81582 9.565494-12.80838 11.523462-5.384414 0.897402-86.517748 1.672432-180.316692 1.733619l-170.526849 0.122373-6.914078 4.711362c-3.793565 2.59023-17.009854 15.072281-29.349137 27.758288-34.570387 35.549372-72.669198 64.75574-94.553578 72.465242-4.588989 1.631641-8.81086 2.161924-9.40233 1.223731z m101.569634-38.343557c-6.710122-7.852271-8.382554-11.013575-6.261421-11.808999 1.570454-0.611865 16.112452-0.163164 32.28609 0.99938 41.953561 2.99814 236.73067 2.834976 243.440792-0.203956 2.834976-1.305313 9.749053-8.647696 15.357818-16.316407 8.586509-11.788604 11.115552-13.970923 16.173639-13.970923 8.40295 0 21.537657 10.646456 33.652589 27.268795 11.380694 15.602564 11.197134 19.477711-1.080962 22.006754-3.854751 0.81582-78.420731 1.754014-165.713508 2.039551l-158.697454 0.632261zM494.693065 744.497256h11.523462l15.888101 54.802732 18.335563-50.458489h6.791704l17.968443 50.458489 16.234825-54.802732h11.156344l-20.211949 72.38366h-11.543858l-17.193414-46.114245-16.62234 46.114245h-11.339903zM887.021071 752.920601l11.21753-8.158203v21.415284h13.359058v9.789844h-13.359058v28.288571c0 6.873286 7.974644 5.527183 10.931993 3.773169l2.569834 9.341143c-15.378214 5.037691-24.739752-1.060566-24.719357-11.686627V775.967526h-9.728658v-9.789844h9.728658z m1076.39337 0l11.21753-8.158203v21.415284H1988.03182v9.789844h-13.338663v28.288571c0 6.873286 7.954248 5.527183 10.931993 3.773169l2.40667 9.341143c-15.378214 5.037691-24.719357-1.060566-24.698961-11.686627V775.967526h-9.728658v-9.789844h9.728658zM994.770544 818.186229h-10.830015v-73.321854H994.770544v26.65693a22.863365 22.863365 0 0 1 15.622959-7.301592c7.791084-0.142769 19.559293 11.768209 18.906637 17.295391v36.711916H1017.205603V785.553415a9.585889 9.585889 0 0 0-10.197754-10.483291c-5.384414 0-12.135328 6.465376-12.237305 10.483291z m1070.315508 0h-10.830015v-73.321854h10.830015v26.65693a22.863365 22.863365 0 0 1 15.62296-7.301592c7.791084-0.142769 19.559293 11.768209 18.906636 17.295391v36.711916h-12.094536V785.553415a9.585889 9.585889 0 0 0-10.197755-10.483291c-5.384414 0-12.135328 6.465376-12.237305 10.483291zM1718.607149 744.497256h11.523463l15.888101 54.802732 18.335562-50.458489h6.791705l17.948048 50.458489 16.25522-54.802732h11.156343l-20.211949 72.38366h-11.543858l-17.193414-46.114245-16.622339 46.114245h-11.339903zM1210.024743 766.177682V818.186229h11.441881v-28.145802c0.285537-8.40295 7.81148-14.174879 12.339282-14.072901a10.80962 10.80962 0 0 1 6.567354 1.59085l5.098877-6.975264c-2.243506-3.915938-5.567974-5.22125-10.03459-5.221251-5.62916 0-9.769449 2.896162-14.276856 7.546339v-6.730518z m100.651836-0.142769h11.339903v52.171712h-11.339903z m-0.754634-21.782403h12.84917v12.84917h-12.84917z m568.218874 21.782403h11.339903v52.171712h-11.339903z m-0.754634-21.782403h12.84917v12.84917h-12.84917zM1394.522515 766.177682v52.110525h10.197755V787.592966c0.142769-9.21877 5.302832-11.747813 13.746573-11.992559 3.161304-0.101978 10.197754 2.039551 10.197754 6.975264v35.814513h9.932613v-36.569147a17.540138 17.540138 0 0 0-17.274996-16.459176c-8.525323 0-14.868326 4.527803-16.581549 6.934473v-6.118652zM2260.107907 744.966353l20.395508 32.632814 20.109972-32.632814h14.174879l-28.574108 44.258254v28.941226h-11.62544V789.224607l-26.922072-44.258254zM2475.484479 766.055309h10.197754v32.755187a11.054366 11.054366 0 0 0 10.768829 9.993799 12.074141 12.074141 0 0 0 12.461656-9.993799v-32.755187h10.564873V818.186229h-10.564873v-5.302832c-4.079102 5.22125-10.483291 5.751533-14.868326 5.751533-11.992559 0-18.621099-6.689727-18.6211-15.663751z" fill="#00CCFF" p-id="4324"></path></svg>