<svg version="1.1" xmlns="http://www.w3.org/2000/svg" xmlns:xlink="http://www.w3.org/1999/xlink" x="0px" y="0px" viewBox="0 0 320 274" style="enable-background:new 0 0 320 274;" xml:space="preserve" width="320" height="274">
<style type="text/css">
	.st0{fill:#F589A1;}
</style>
<path id="パス_3076" class="st0" d="M320,70.1c0,1.3-1.1,2.4-2.4,2.4h-72.4c-1.3,0-2.4,1.1-2.4,2.4v8.7c0,1.3-1.1,2.4-2.4,2.4
	h-24.8c-1.3,0-2.4-1.1-2.4-2.4v-20c0.1-1.5,0.8-2.9,1.9-3.9l19.2-15c1.1-1,1.8-2.4,1.9-3.9V2.5c0-1.3,1.1-2.4,2.4-2.4h38.7
	c1.5,0.1,3,0.6,4.2,1.6l36.7,32.9c1.1,1.1,1.7,2.5,1.8,4L320,70.1L320,70.1z"/>
<path id="パス_3077" class="st0" d="M286.8,95.6c0-1.3-1.1-2.4-2.4-2.4h-68.7c-1.3,0-2.4,1.1-2.4,2.4v53.5c0,1.4-1,2.5-2.4,2.7
	l-127.2,17c-1.4,0.2-2.4,1.4-2.4,2.7v45.7c0,1.3,1.1,2.4,2.4,2.4h70c1.3,0,2.4,1.1,2.4,2.4v36.3c0,1.3,1.1,2.4,2.4,2.4h49.8
	c1.3,0,2.4-1.1,2.4-2.4v-17.8c0-1.3,1.1-2.4,2.4-2.4h71.2c1.3,0,2.4-1.1,2.4-2.4V95.6H286.8z"/>
<path id="長方形_3506" class="st0" d="M86.1,226.5H136c3.3,0,6,2.7,6,6v28.4c0,3.3-2.7,6-6,6H86.1c-3.3,0-6-2.7-6-6v-28.4
	C80.1,229.2,82.8,226.5,86.1,226.5z"/>
<path id="長方形_3507" class="st0" d="M6,243.1h6.1c3.3,0,6,2.7,6,6v18.8c0,3.3-2.7,6-6,6H6c-3.3,0-6-2.7-6-6v-18.8
	C0,245.8,2.7,243.1,6,243.1z"/>
<path id="パス_3078" class="st0" d="M72.1,184.3c0-1.3-1.1-2.4-2.4-2.4H15.8c-1.3,0-2.4,1.1-2.4,2.4v49.5c0,1.3,1.1,2.4,2.4,2.4
	h6.7c1.3,0,2.4,1.1,2.4,2.4v25.7c0,1.3,1.1,2.4,2.4,2.4h42.4c1.3,0,2.4-1.1,2.4-2.4V184.3z"/>
</svg>