<svg version="1.1" xmlns="http://www.w3.org/2000/svg" xmlns:xlink="http://www.w3.org/1999/xlink" x="0px" y="0px" viewBox="0 0 42.1 69" style="enable-background:new 0 0 42.1 69;" xml:space="preserve" width="43" height="70">
<style type="text/css">
	.st0{fill:#E65F7D;}
</style>
<ellipse id="楕円形_22" class="st0" cx="21" cy="22.8" rx="9.8" ry="9.8"/>
<path id="パス_3079" class="st0" d="M21,0C17.5,0,0,2.6,0,23.7c0,13,19.6,44.3,19.6,44.3c0.3,0.8,1.2,1.1,2,0.8
	c0.4-0.2,0.6-0.4,0.8-0.8c0,0,19.6-31.4,19.6-44.3C42.1,2.6,24.6,0,21,0z M21,35.5c-7,0-12.7-5.7-12.7-12.7c0-7,5.7-12.7,12.7-12.7
	c7,0,12.7,5.7,12.7,12.7C33.7,29.8,28,35.5,21,35.5L21,35.5z"/>
</svg>