<svg version="1.1" xmlns="http://www.w3.org/2000/svg" xmlns:xlink="http://www.w3.org/1999/xlink" x="0px" y="0px" viewBox="0 0 160 191.7" style="enable-background:new 0 0 160 191.7;" xml:space="preserve" width="160" height="192">
<style type="text/css">
	.st0{fill:#F97E9F;}
	.st1{fill:#FFFFFF;}
</style>
<path class="st0" d="M130.1,31.7h-8.5v43.8h-11.5V31.7h-5.1v43.8H93.6V31.7H29.9c-0.4,0-0.7,0.3-0.8,0.8v126.8
	c0,0.4,0.3,0.8,0.8,0.8h100.3c0.4,0,0.8-0.3,0.8-0.8V32.4C130.9,32,130.6,31.7,130.1,31.7z M55.3,154.8H37.4v-30.4h17.9V154.8z
	 M68.5,154.8h-7.8v-30.4h7.8V154.8z"/>
<rect x="44.6" y="128.4" class="st0" width="3.6" height="22.4"/>
<path class="st0" d="M160,56.8c0-5.6-3.3-10.7-8.4-13c7.2-3.3,10.4-11.7,7.1-18.9c-2.3-5-7.2-8.2-12.6-8.4c0.1-0.7,0.2-1.5,0.2-2.2
	C146.3,6.4,139.9,0,132,0c-5.6,0-10.7,3.3-13,8.4c-3.3-7.2-11.7-10.4-18.9-7.1c-3.1,1.4-5.7,3.9-7.1,7.1C89.7,1.2,81.3-2,74.1,1.3
	c-3.1,1.4-5.7,3.9-7.1,7.1C63.7,1.2,55.3-2,48.1,1.3c-3.1,1.4-5.7,3.9-7.1,7.1C37.7,1.2,29.3-2,22.1,1.3c-5.1,2.3-8.4,7.4-8.4,13
	c0,0.8,0.1,1.5,0.2,2.2C6,16.8-0.2,23.3,0,31.2c0.1,5.5,3.4,10.4,8.4,12.6C1.2,47.1-2,55.6,1.3,62.7c1.4,3.1,3.9,5.7,7.1,7.1
	C1.2,73.1-2,81.6,1.3,88.7c1.4,3.1,3.9,5.7,7.1,7.1C1.2,99.1-2,107.6,1.3,114.7c1.4,3.1,3.9,5.7,7.1,7.1
	c-7.2,3.3-10.4,11.7-7.1,18.9c1.4,3.1,3.9,5.7,7.1,7.1c-7.2,3.3-10.4,11.7-7.1,18.9c2.3,5,7.2,8.2,12.6,8.4
	c-0.1,0.7-0.2,1.5-0.2,2.2c0,7.9,6.4,14.3,14.3,14.3c5.6,0,10.7-3.3,13-8.4c3.3,7.2,11.7,10.4,18.9,7.1c3.1-1.4,5.7-3.9,7.1-7.1
	c3.3,7.2,11.7,10.4,18.9,7.1c3.1-1.4,5.7-3.9,7.1-7.1c3.3,7.2,11.7,10.4,18.9,7.1c3.1-1.4,5.7-3.9,7.1-7.1
	c3.3,7.2,11.7,10.4,18.9,7.1c5.1-2.3,8.4-7.4,8.4-13c0-0.8-0.1-1.5-0.2-2.2c7.9-0.2,14.1-6.8,13.9-14.6c-0.1-5.5-3.4-10.4-8.4-12.6
	c7.2-3.3,10.4-11.7,7.1-18.9c-1.4-3.1-3.9-5.7-7.1-7.1c7.2-3.3,10.4-11.7,7.1-18.9c-1.4-3.1-3.9-5.7-7.1-7.1
	c7.2-3.3,10.4-11.7,7.1-18.9c-1.4-3.1-3.9-5.7-7.1-7.1C156.7,67.5,160,62.4,160,56.8z M133.4,159.2c0,1.8-1.5,3.2-3.2,3.2H29.9
	c-1.8,0-3.2-1.5-3.2-3.2V32.4c0-1.8,1.5-3.2,3.2-3.2h100.3c1.8,0,3.2,1.5,3.2,3.2L133.4,159.2z"/>
<path class="st1" d="M37.4,154.8h17.9v-30.4H37.4V154.8z M44.6,128.4h3.6v22.4h-3.6V128.4z"/>
<rect x="60.7" y="124.4" class="st1" width="7.8" height="30.4"/>
</svg>