<svg version="1.1" xmlns="http://www.w3.org/2000/svg" xmlns:xlink="http://www.w3.org/1999/xlink" x="0px" y="0px" viewBox="0 0 218 93.5" style="enable-background:new 0 0 218 93.5;" xml:space="preserve" width="218" height="94">
<style type="text/css">
	.st0{fill:none;}
	.st1{fill:#009AB4;}
	.st2{fill:#FFFFFF;}
	.st3{fill:#E3007F;}
</style>
<path class="st0" d="M199.6,35.7h-15.1l-16.9,15.5c1.7,1.5,2.6,3.6,2.6,5.9v6.1L199.6,35.7z"/>
<path class="st0" d="M114.5,35.7c1.7,2.3,2.9,4.9,3.4,7.7v-7.7H116v-0.2C115.5,35.6,115,35.7,114.5,35.7z"/>
<path class="st1" d="M210,18.9h-32.6l-7.4,6.8c-0.6-3.9-4-6.8-7.9-6.8l-28.4,0l0-3.5c-0.1-3.1-2.5-7.8-8.9-7.8
	c-2.4-0.1-4.8,0.8-6.5,2.5c-0.4,0.4-0.8,0.9-1.1,1.5c-1.5-2.3-4.1-3.8-6.9-3.8H102V0H84.4l0,7.7l-16.2,0v1.4c-1.4-0.9-3-1.4-4.6-1.4
	H39.9c-0.7-0.2-1.3-0.3-2-0.3V0H20.3l0,7.4l-8.1,0v17.1h3L0,38.7v23.9l20.3-19v22.4h17.5V55.6l3.8,3.6v6.9h30V35.7h0.6V66h26.9
	c3.2-0.1,6.4-0.8,9.3-2.2c3.2-1.5,5.9-3.9,7.7-7V66h35.5v16L163,93.5l55-51.5V26.7c0.1-4.3-3.4-7.8-7.7-7.9
	C210.2,18.9,210.1,18.9,210,18.9z M216.3,41.3L163,91.2l-7-7l-2-2l-0.9-0.9V64.4h-35.5V50.9h44.4c3.4-0.1,6.2,2.6,6.3,6
	c0,0.1,0,0.2,0,0.2v10l33.5-31.2V34h-18.1l-18.2,16.7v-4.8c-1.1,2-3.2,3.3-5.5,3.4h-40.5V35.8l40.4,0c2.3,0,4.4,1.3,5.6,3.3v-6.2
	c-1,0.7-2.2,1-3.4,1.1h-44.5V33c-1,0.6-2.1,1-3.3,1.1h-3.9c3.4,2.6,6.1,6.8,6.1,13.3c0,8.8-4.9,13-9,15c-2.7,1.3-5.6,2-8.6,2H73.8
	V34h-4v30.4H43.2v-6c-2-1.9-6.1-5.8-7.1-6.7v12.7H22V39.8l-20.3,19V39.5l17.7-16.6h-5.6V9.1h3.1l5,0c0-0.2,0-0.3,0-0.4v0l0-6.9h14.3
	v6.8c0,0.2,0,0.4,0,0.6h1.2c0.8,0,1.5,0.1,2.2,0.3h23.9c3.1-0.1,5.7,2.1,6.3,5.2V9.4l16.3,0C86,9.1,86,8.9,86,8.6v0l0-6.9h14.3v6.8
	c0,0.3,0,0.6-0.1,0.9h10c3.5,0,6.4,2.9,6.4,6.4c0,0.1,0,0.2,0,0.3c0.1,1.6-0.5,3.2-1.5,4.5c0.9,0.1,1.8,0.5,2.6,1v-6
	c0-1.6,0.6-3.1,1.8-4.3c1.4-1.4,3.4-2.1,5.4-2c5.2,0,7.2,3.7,7.2,6.1v0l0,5.1l30.1,0c3.5,0,6.4,2.9,6.4,6.4c0,0.1,0,0.2,0,0.2
	c0,0.8-0.1,1.7-0.4,2.5l10-9.2H210c3.4-0.1,6.2,2.6,6.3,6c0,0.1,0,0.2,0,0.2L216.3,41.3z M117.9,35.7v7.7c-0.5-2.8-1.6-5.5-3.4-7.7
	c0.5,0,1-0.1,1.5-0.2v0.2H117.9z M167.5,51.2l16.9-15.5h15.1l-29.5,27.5v-6.1C170.1,54.8,169.2,52.7,167.5,51.2L167.5,51.2z"/>
<line class="st0" x1="36.2" y1="8.5" x2="36.2" y2="8.6"/>
<rect x="89.1" y="20" class="st2" width="8.2" height="3.9"/>
<path class="st2" d="M85.1,43.8l13,0c1.8,0,3.3,1.5,3.3,3.3c0,0.1,0,0.2,0,0.2c0.1,1.9-1.3,3.5-3.1,3.7c0,0-0.1,0-0.1,0h-13v3h14.3
	c0,0,5.9,0,5.9-6.5S99.4,41,99.4,41H85.1V43.8z"/>
<path class="st2" d="M210,20.5h-31.9l-10,9.2c0.3-0.8,0.4-1.6,0.4-2.5c0.2-3.5-2.6-6.5-6.1-6.7c-0.1,0-0.2,0-0.2,0l-30.1,0l0-5.1v0
	c-0.1-2.5-2-6.1-7.2-6.1c-2-0.1-3.9,0.6-5.4,2c-1.1,1.1-1.7,2.7-1.8,4.3v6c-0.8-0.5-1.7-0.8-2.6-1c1-1.3,1.6-2.9,1.5-4.5
	c0.2-3.5-2.6-6.5-6.1-6.7c-0.1,0-0.2,0-0.3,0h-10c0-0.3,0.1-0.6,0.1-0.9V1.7H86l0,6.9v0c0,0.3,0,0.5,0.1,0.8l-16.3,0v5.2
	c-0.5-3-3.2-5.2-6.3-5.2H39.7c-0.7-0.2-1.5-0.3-2.2-0.3h-1.2c0-0.2,0-0.4,0-0.6V1.7H21.9l0,6.9v0c0,0.1,0,0.3,0,0.4l-5,0h-3.1v13.8
	h5.6L1.7,39.5v19.3l20.3-19v24.6h14.1V51.7c1,0.9,5.1,4.8,7.1,6.7v6h26.6V34h4v30.3h25.2c3-0.1,5.9-0.8,8.6-2c4.1-2,9-6.2,9-15
	c0-6.5-2.7-10.7-6.1-13.3h3.9c1.2-0.1,2.3-0.4,3.3-1.1V34h44.5c1.2-0.1,2.4-0.4,3.4-1.1v6.2c-1.1-2-3.3-3.3-5.6-3.3l-40.4,0v13.5
	h40.5c2.3-0.1,4.4-1.4,5.5-3.4v4.8L183.8,34h18.1v1.8l-33.5,31.2v-10c0-3.4-2.7-6.2-6.1-6.2c-0.1,0-0.2,0-0.2,0h-44.4v13.5h35.5
	v16.9l0.9,0.9l2,2l7,7l53.3-49.9V26.7c0-3.4-2.7-6.2-6.1-6.2C210.1,20.5,210.1,20.5,210,20.5z M120.8,54.3h41.3c0,0,3.2,0,3.2,3.1
	v14l-8.2,7.7V61.5h-36.3V54.3z M205,37.5v-6.3h-22.5l-13.9,12.7V33.7l10.6-9.7H210c0,0,3.2,0,3.2,3.1v13.2l-50.1,46.9l-5.5-5.5
	L205,37.5z M113.4,47.6c0,13.9-14.4,13.9-14.4,13.9H77V33.6h22.1C99.1,33.6,113.4,33.7,113.4,47.6z M69,31.2v-7.2h12.1V20h-8.2v-7.2
	l37.3,0c1.8,0,3.3,1.5,3.3,3.3c0,0.1,0,0.2,0,0.2c0.1,1.9-1.3,3.5-3.1,3.7c0,0-0.1,0-0.1,0h-4.9V24h8.9c1.8,0,3.3,1.5,3.3,3.3
	c0,0.1,0,0.2,0,0.2c0.1,1.9-1.3,3.5-3.1,3.7c0,0-0.1,0-0.1,0L69,31.2z M97.2,5.1v3.8c0,0,0.1,3.1-4,3.1s-4.1-3.1-4.1-3.1l0-3.8H97.2
	z M120.8,31.2V15.8c0,0-0.1-3.1,4-3.1s4.1,3.1,4.1,3.1l0,8.2l33.2,0c1.8,0,3.3,1.5,3.3,3.3c0,0.1,0,0.2,0,0.2
	c0.1,1.9-1.3,3.5-3.1,3.7c0,0-0.1,0-0.1,0L120.8,31.2z M4.8,41.1L27.3,20H16.9v-7.5c0,0,19.3,0,20.5,0c2-0.1,3.8,1.4,3.9,3.4
	c0,0.1,0,0.3,0,0.4c0,1.7-2.1,3.5-2.1,3.5L4.8,51.9V41.1z M33.1,5.1v3.8c0,0,0.1,3.1-4,3.1S25,8.9,25,8.9l0-3.8H33.1z M66.7,15.9
	v45.7h-8.2V20H42.3v-7.2h21.2C63.5,12.8,66.7,12.8,66.7,15.9z M54.5,24.7v36.8h-8.1V24.7c0,0,0-2.8,4.1-2.8S54.5,24.7,54.5,24.7z
	 M45.4,21.2v10.5l-4.3,3.8c0,0-3,2.3-5.2-0.5s0.6-5.5,0.6-5.5L45.4,21.2z M33,61.5h-7.8V36.2C25.1,34,26.8,32.1,29,32
	c1.1,0,2.1,0.3,2.9,1.1c0.5,0.5,9.3,8.7,9.3,8.7v10.6L33,44.7L33,61.5z M122.7,46.4v-7.2l37.3,0c1.8,0,3.3,1.5,3.3,3.3
	c0,0.1,0,0.2,0,0.2c0.1,1.9-1.3,3.5-3.1,3.7c0,0-0.1,0-0.1,0L122.7,46.4z"/>
<path class="st3" d="M213.2,40.3V27c0-3.1-3.2-3.1-3.2-3.1h-30.7l-10.6,9.7v10.2l13.9-12.7H205v6.3l-47.4,44.2l5.5,5.5L213.2,40.3z"
	/>
<path class="st3" d="M29.1,11.9c4,0,4-3.1,4-3.1V5.1h-8l0,3.8C25,8.9,25.1,11.9,29.1,11.9z"/>
<path class="st3" d="M41.3,16.3c0.1-2-1.5-3.7-3.5-3.8c-0.1,0-0.3,0-0.4,0c-1.2,0-20.5,0-20.5,0V20h10.4L4.8,41.1v10.8l34.4-32.1
	C39.2,19.8,41.3,17.9,41.3,16.3z"/>
<path class="st3" d="M41.2,41.8c0,0-8.7-8.2-9.3-8.7c-1.6-1.5-4.2-1.4-5.7,0.2c-0.7,0.8-1.1,1.8-1.1,2.9v25.3H33V44.7l8.2,7.7
	L41.2,41.8z"/>
<path class="st3" d="M35.9,35c2.3,2.9,5.2,0.5,5.2,0.5l4.3-3.8V21.2l-8.9,8.3C36.5,29.5,33.6,32.1,35.9,35z"/>
<path class="st3" d="M42.3,12.8V20h16.2v41.5h8.2V15.9c0-3.1-3.2-3.1-3.2-3.1H42.3z"/>
<path class="st3" d="M46.4,24.7v36.8h8.1V24.7c0,0,0.2-2.8-4-2.8S46.4,24.7,46.4,24.7z"/>
<path class="st3" d="M157.1,79l8.2-7.7v-14c0-3.1-3.2-3.1-3.2-3.1h-41.3v7.2h36.3V79z"/>
<path class="st3" d="M165.3,27.5c0.2-1.8-1.2-3.4-3-3.5c-0.1,0-0.2,0-0.2,0l-33.2,0l0-8.2c0,0-0.1-3.1-4.1-3.1s-4,3.1-4,3.1v15.4
	h41.3c1.9-0.1,3.3-1.7,3.3-3.6C165.3,27.6,165.3,27.5,165.3,27.5z"/>
<path class="st3" d="M163.3,42.8c0.2-1.8-1.2-3.4-3-3.5c-0.1,0-0.2,0-0.2,0l-37.3,0v7.2H160C161.9,46.3,163.3,44.7,163.3,42.8
	C163.3,42.8,163.3,42.8,163.3,42.8z"/>
<path class="st3" d="M93.2,11.9c4,0,4-3.1,4-3.1V5.1h-8.1l0,3.8C89.1,8.9,89.2,11.9,93.2,11.9z"/>
<path class="st3" d="M77,33.6v27.9h22.1c0,0,14.4,0,14.4-13.9s-14.4-14-14.4-14H77z M105.3,47.6c0,6.5-5.9,6.5-5.9,6.5H85.1v-3h13
	c1.9-0.1,3.3-1.7,3.2-3.6c0,0,0-0.1,0-0.1c0.2-1.8-1.2-3.4-3-3.5c-0.1,0-0.2,0-0.2,0l-13,0V41h14.3C99.4,41,105.3,41.1,105.3,47.6
	L105.3,47.6z"/>
<path class="st3" d="M117.5,27.5c0.2-1.8-1.2-3.4-3-3.5c-0.1,0-0.2,0-0.2,0h-8.9V20h4.9c1.9-0.1,3.3-1.7,3.2-3.6c0,0,0-0.1,0-0.1
	c0.2-1.8-1.2-3.4-3-3.5c-0.1,0-0.2,0-0.2,0l-37.3,0V20h8.2v3.9H69v7.2h45.3C116.1,31.1,117.6,29.5,117.5,27.5
	C117.5,27.6,117.5,27.5,117.5,27.5z M97.3,23.9h-8.2V20h8.2V23.9z"/>
<path class="st2" d="M27.4,70.7h-3.1v3.1h-0.8v-3.1H19v10.4h4.5v-3.6h0.8v3.6h4.5V70.7H27.4z"/>
<path class="st3" d="M25.7,75.2v-3.1h1.7v7.6h-1.7v-3.6H22v3.6h-1.7v-7.6H22v3.1H25.7z"/>
<path class="st2" d="M34.4,70.7h-2.1l-5,10.4h4.7l0.9-2.3h1l0.8,2.3h4.9l-4.3-10.4H34.4z"/>
<path class="st3" d="M34.4,72.2l3.1,7.6h-1.8l-0.8-2.3h-3L31,79.8h-1.5l3.6-7.6H34.4z M34.5,76.6l-1.1-2.9l-1.2,2.9H34.5z"/>
<path class="st2" d="M46.1,70.7H37v3.8h3v6.6h4.5v-6.6h3v-3.8H46.1z"/>
<path class="st3" d="M46.1,72.2v1h-3v6.6h-1.7v-6.6h-3v-1H46.1z"/>
<path class="st2" d="M46.1,74.2c0,0.9,0.4,1.8,1.1,2.4c0,0.1-0.1,0.3-0.1,0.3l-0.3,0.2c-0.5,0.3-0.8,0.8-0.8,1.4c0,0.1,0,0.1,0,0.2
	l0.1,0.9c0.1,0.7,0.6,1.3,1.2,1.4c0.8,0.2,1.7,0.3,2.5,0.3c1.1,0,2.2-0.3,3.1-1c0.9-0.7,1.4-1.7,1.4-2.8c0-1.1-0.5-2.1-1.5-2.7
	c0,0,0-0.1,0-0.1l0.3-0.1c0.5-0.3,0.8-0.8,0.8-1.4c0-0.1,0-0.1,0-0.2l-0.1-0.8l0-0.1c-0.1-0.5-0.4-1-0.9-1.2
	c-0.8-0.2-1.5-0.4-2.3-0.4C47.9,70.6,46.1,72.1,46.1,74.2z"/>
<path class="st3" d="M52.6,73.2c0,0.1,0,0.1-0.1,0.2l-0.3,0.1c-0.1,0-0.1,0-0.1,0c-0.1-0.1-0.3-0.1-0.4-0.2
	c-0.4-0.2-0.9-0.3-1.4-0.3c-0.8,0-1.3,0.4-1.3,1c0,0.6,0.4,0.8,1.6,1.3s2.2,1,2.2,2.3c0,1.3-1.2,2.4-3,2.4c-0.7,0-1.4-0.1-2.1-0.3
	c-0.2,0-0.2-0.1-0.2-0.2l-0.1-0.8c0-0.1,0-0.2,0.1-0.2l0.3-0.2c0,0,0.1,0,0.1,0c0,0,0.3,0.2,0.4,0.2c0.5,0.3,1.1,0.5,1.8,0.5
	c1,0,1.4-0.5,1.4-1c0-0.6-0.5-0.8-1.5-1.2c-1.2-0.5-2.4-1-2.4-2.4c0-1.4,1.3-2.2,3.1-2.2c0.6,0,1.2,0.1,1.8,0.2
	c0.1,0,0.1,0.1,0.1,0.2L52.6,73.2z"/>
<path class="st2" d="M62.3,70.7h-2.6v5.4c0,0.4,0,0.7,0,1.1c-0.2,0.1-0.4,0.1-0.7,0.1c-0.1,0-0.3,0-0.4-0.1c0-0.2,0-0.6,0-0.6v-6H54
	v6c-0.2,1.2,0.2,2.5,1.1,3.4c0.9,0.8,2.2,1.2,3.4,1.1c1.4,0.1,2.7-0.4,3.8-1.2c1.3-1.1,1.3-2.6,1.3-3.9l0.1-5.4H62.3z"/>
<path class="st3" d="M57.1,72.2v4.5c0,0.9,0,1.2,0.3,1.6c0.4,0.4,1,0.5,1.5,0.5c0.7,0,1.3-0.2,1.8-0.6c0.4-0.4,0.4-1,0.4-2v-4h1.2
	l-0.1,4c0,1.4-0.1,2.2-0.9,2.9c-0.8,0.6-1.8,0.9-2.8,0.9c-0.9,0.1-1.8-0.2-2.4-0.8c-0.6-0.6-0.7-1.3-0.7-2.4v-4.6H57.1z"/>
<path class="st2" d="M72.5,70.7h-2.6c0,0,0,2.4,0.1,3l-2.8-3h-3.3l0,10.4h4.1c0,0,0-2.4-0.1-3.1l3.2,3.5l2.9-0.7l0-10H72.5z"/>
<path class="st3" d="M66.5,72.2l4.9,5.4l-0.1-5.4h1.2l0,7.5l-1,0.3l-5.1-5.6l0.1,5.4h-1.2l0-7.6H66.5z"/>
<path class="st2" d="M81.1,70.7h-6.9v10.4h8.5v-3.8h-0.5v-2.8h0.4v-3.8H81.1z"/>
<path class="st3" d="M81.1,72.2v0.9h-3.8v2.2h3.5v0.9h-3.5v2.5h4v1h-5.7v-7.6H81.1z"/>
<path class="st2" d="M96.8,70.7h-2.4l-1.9,3.7l-1.8-3.7H87l-0.7,10.4h4.1c0,0,0-0.5,0-1l0.5,1.1l2.5-0.4c0,0,0.5-1,0.6-1.1l0,1.4
	h4.4l-0.4-10.4H96.8z"/>
<path class="st3" d="M89.8,72.2l2.6,5.5l2.8-5.5h1.5l0.3,7.6h-1.6l-0.2-5.4l-2.7,5.2l-0.8,0.1l-2.7-5.5L89,79.8h-1.2l0.5-7.6
	L89.8,72.2z"/>
<polygon class="st2" points="101.7,70.7 98.6,70.7 98.6,81.2 103.1,81.2 103.1,70.7 "/>
<path class="st3" d="M101.7,72.2v7.6H100v-7.6H101.7z"/>
<path class="st2" d="M111.6,70.7h-2.4l-1.3,1.4v-1.4h-4.5v10.4h4.5v-1.3l1,1.3h5.8l-4.4-5.7l5-4.8L111.6,70.7z"/>
<path class="st3" d="M106.5,72.2v7.6h-1.7v-7.6H106.5z M111.6,72.2l-3.4,3.2l3.4,4.4h-2.1l-3-4.1l3.3-3.6L111.6,72.2z"/>
<path class="st2" d="M120.4,70.7h-2.6v5.4c0,0.4,0,0.7-0.1,1.1c-0.2,0.1-0.4,0.1-0.7,0.1c-0.1,0-0.3,0-0.4-0.1c0-0.2,0-0.6,0-0.6v-6
	h-4.5v6c-0.2,1.2,0.3,2.5,1.1,3.4c0.9,0.8,2.2,1.2,3.4,1.1c1.4,0.1,2.7-0.4,3.8-1.2c1.3-1.1,1.3-2.6,1.3-3.9l0.1-5.4H120.4z"/>
<path class="st3" d="M115.2,72.2v4.5c0,0.9,0,1.2,0.3,1.6c0.4,0.4,1,0.5,1.5,0.5c0.7,0,1.3-0.2,1.8-0.6c0.4-0.4,0.4-1,0.4-2v-4h1.2
	l-0.1,4c0,1.4-0.1,2.2-0.9,2.9c-0.8,0.6-1.8,0.9-2.8,0.9c-0.9,0.1-1.8-0.2-2.4-0.8c-0.6-0.6-0.7-1.3-0.7-2.4v-4.6H115.2z"/>
</svg>
