<svg version="1.1" xmlns="http://www.w3.org/2000/svg" xmlns:xlink="http://www.w3.org/1999/xlink" x="0px" y="0px" viewBox="0 0 913 437.2" style="enable-background:new 0 0 913 437.2;" xml:space="preserve" width="913" height="438">
<style type="text/css">
	.st0{fill:#CFF1F3;}
	.st1{fill:#00445D;}
	.st2{fill:#25A8AA;}
	.st3{fill:#ED829E;}
	.st4{fill:#FFFFFF;}
	.st5{fill:#F7D16E;}
</style>
<path class="st0" d="M300.9,162c-21.8,0-26.3-8.9-26.3-16.3c-0.1-3.8,1.5-7.5,4.4-10l0.3-0.2l-0.2-0.3c-1.7-2.3-2.7-5-2.6-7.9
	c0-7,4.2-15.4,24.5-15.4c7.6,0,13.5,1.2,17.5,3.5c4.4,2.3,7.1,6.9,7,11.8c0.1,2.8-0.8,5.5-2.5,7.7l-0.2,0.3l0.3,0.2
	c2.9,2.6,4.5,6.3,4.3,10.2C327.2,153.1,322.7,162,300.9,162z M300.9,115.1c-14.1,0-21.3,4.1-21.3,12.2c-0.2,3.5,1.8,6.8,4.9,8.4v0.3
	c0,0.1,0,0.1-0.1,0.1l0,0c-4.6,1.8-6.8,4.9-6.8,9.6c0,8.7,7.8,13.1,23.1,13.1s23.1-4.4,23.1-13.1c0-4.7-2.1-7.9-6.6-9.9l-0.1-0.1
	v-0.4c3.1-1.5,4.9-4.6,4.8-8C322.2,119.2,315,115.1,300.9,115.1L300.9,115.1z"/>
<path class="st0" d="M302.3,132.2c-3-0.9-4.1-1.7-4.1-3.1c0-0.2,0-0.5,0.1-0.7c0.3-0.8,1.3-1.3,2.9-1.3c1.4,0,2.4,0.3,2.8,1
	c0.2,0.3,0.3,0.6,0.3,1c0,1-0.5,1.8-1.8,3L302.3,132.2L302.3,132.2z"/>
<path class="st0" d="M300.8,146.5c-2,0-3.1-0.7-3.1-2c0-1,0.5-1.8,1.8-3h0.1c3,0.9,4.1,1.7,4.1,3.1S302.8,146.5,300.8,146.5z"/>
<path class="st0" d="M336.2,162c-8.4,0-14.2-5.3-14.2-12.9s5.8-12.9,14.2-12.9s14.2,5.3,14.2,12.9S344.6,162,336.2,162z
	 M336.2,139.4c-6.6,0-11,3.9-11,9.7s4.4,9.7,11,9.7s11-3.9,11-9.7S342.9,139.4,336.2,139.4L336.2,139.4z"/>
<path class="st0" d="M349.9,161c-1.7,0-3.1-1.4-3.1-3.1v-15.7c-0.1-1.4,0.8-2.6,2.1-3l0.3-0.1v-4.4h-0.3c-1.5-0.2-2.7-1.5-2.7-3.1
	v-12.3c0-1.6,1.2-2.9,2.7-3.1c2.7-0.3,5.2-1.2,7.4-2.8c0.5-0.4,1.2-0.6,1.8-0.6h13.6c1.7,0,3.1,1.4,3.1,3.1l0,0v23.2l0.3,0.1
	c1.3,0.4,2.2,1.6,2.1,3v15.6c0,1.7-1.4,3.1-3.1,3.1L349.9,161z M350,157.8h23.9v-15.4h-2.3c-0.1,0-0.1,0-0.1-0.1l0,0v-26.2h-13.4
	l-0.1,0.1c-2.5,1.7-5.3,2.8-8.3,3.2l-0.3,0.1v12.1h2.9c0.1,0,0.1,0,0.1,0.1v0v10.6c0,0.1,0,0.1-0.1,0.1H350L350,157.8z"/>
<path class="st0" d="M393.3,162c-8.2,0-13.8-5.3-13.8-13.1c0-3.3,1.1-6.5,3.1-9.1l0.5-0.6h-8.3c-1.7,0-3.1-1.4-3.1-3.1V116
	c0-1.7,1.4-3.1,3.1-3.1h44.4c1.7,0,3.1,1.4,3.1,3.1v14.8c0,0.6-0.2,1.2-0.5,1.8l-14.4,21.1C403.4,159.4,399.1,162,393.3,162z
	 M397.8,131.5c0.1,0,0.1,0,0.1,0.1v0.2l-10.6,7.9c-2.9,2.1-4.6,5.5-4.6,9.1c0,6.1,4,9.9,10.5,9.9c4.7,0,8-2,11.4-6.9l14.4-21v-14.8
	h-44V136h15.2v-4.3c0-0.1,0-0.1,0.1-0.1L397.8,131.5z"/>
<path class="st1" d="M300.9,158.5c-15.2,0-22.8-4.3-22.8-12.8c0-4.5,2.1-7.6,6.6-9.3l0.2-0.1v-0.7l-0.2-0.1c-3.1-1.5-5-4.7-4.8-8.2
	c0-7.9,7.1-11.9,21-11.9s21,4,21,11.8c0.2,3.3-1.6,6.3-4.6,7.7l-0.2,0.1v0.8l0.2,0.1c4.3,2,6.4,5.1,6.4,9.7
	C323.7,154.1,316.1,158.5,300.9,158.5z M299.4,141.2c-1.4,1.3-1.9,2.1-1.9,3.2c0,1.5,1.1,2.3,3.4,2.3s3.3-0.7,3.3-2.2
	c0-1.8-1.7-2.6-4.4-3.4l-0.2-0.1L299.4,141.2z M301.2,126.8c-2.2,0-3.3,0.8-3.3,2.2c0,1.8,1.7,2.6,4.4,3.4l0.2,0.1l0.2-0.1
	c1.4-1.3,1.9-2.1,1.9-3.2C304.5,127.6,303.4,126.8,301.2,126.8L301.2,126.8z"/>
<path class="st1" d="M336.2,158.5c-6.4,0-10.7-3.8-10.7-9.4s4.3-9.4,10.7-9.4s10.7,3.8,10.7,9.4S342.6,158.5,336.2,158.5z"/>
<path class="st1" d="M350.2,157.5v-14.9h2.4v-11.4h-3v-11.6c3.1-0.4,6-1.5,8.5-3.3h13v26.3h2.4v14.9H350.2z"/>
<path class="st1" d="M393.3,158.5c-6.3,0-10.3-3.7-10.3-9.6c-0.1-3.5,1.6-6.9,4.5-8.9l10.7-7.9v-0.8h-8.4v4.4h-14.5v-19.3h43.5v14.3
	l-14.4,21C401.1,156.5,397.9,158.5,393.3,158.5z"/>
<path class="st0" d="M333.4,191.6c-1.4,0-2.9-0.2-4.2-0.8l-0.2-0.1l-0.2,0.1c-0.4,0.2-0.8,0.3-1.2,0.3h-8.4c-1.4,0-2.6-1.2-2.6-2.6
	v-7.8c0-0.5,0.2-1.1,0.5-1.5l0.1-0.2l-0.1-0.2c-0.6-1.1-0.8-2.4-0.8-3.6c0-4.7,3.6-8.1,8.9-8.1c1.4,0,2.7,0.2,4,0.7l0.2,0.1l0.2-0.1
	c0.4-0.2,0.8-0.3,1.2-0.3h8.4c1.4,0,2.6,1.2,2.6,2.6v7.2c0,0.4-0.1,0.8-0.3,1.2l-0.1,0.2l0.1,0.2c0.8,1.3,1.2,2.9,1.2,4.4
	C342.5,188.3,339,191.6,333.4,191.6z M328,187.7c1.5,1.1,3.4,1.7,5.3,1.6c4.4,0,7-2.3,7-6.1s-2.6-5.8-9.2-6.8h1
	c1.8,0,3.6,0.4,5.2,1.2h2.1v-7.9h-9.3l-0.2,1.2c-1.4-1.1-3.1-1.7-4.9-1.6c-4,0-6.7,2.3-6.7,5.9s2.9,5.9,9.1,6.7h-0.8
	c-2.1,0-4.1-0.5-5.9-1.6l-0.1-0.1h-2v8.6h9.2L328,187.7z"/>
<path class="st0" d="M352.5,191.2c-0.2,0-0.3,0-0.5-0.1h-0.1c-0.2,0-0.3,0-0.5,0.1h-11c-1.4,0-2.6-1.2-2.6-2.6v-6.9
	c0-1,0.5-1.9,1.4-2.3l0.5-0.2l-0.3-0.4c-0.4-0.5-0.6-1.1-0.6-1.7v-6.9c0-1.4,1.2-2.6,2.6-2.6h17.1c1.2,0,2.2,0.8,2.5,1.9l2.7,9.8
	l0.2,0.1c0.9,0.4,1.5,1.4,1.5,2.4v6.9c0,1.4-1.2,2.6-2.6,2.6L352.5,191.2z M352.1,188.9h11v-7.6h-1.2l-3.2-11.5h-17.8v7.6h1.4
	l-1.1,3.9H340v7.6h11.8v-6.8H350l0.1-0.6h1.9L352.1,188.9z M350.7,177.9l0.4-1.8l0.4,1.8H350.7z"/>
<path class="st0" d="M366.4,191.2c-1.4,0-2.6-1.2-2.6-2.6v-6.5h-2.3c-1.4,0-2.6-1.2-2.6-2.6v-9.3c0-1.4,1.2-2.6,2.6-2.6h23.1
	c1.4,0,2.6,1.2,2.6,2.6l0,0v9.3c0,1.4-1.2,2.6-2.6,2.6h-2.3v6.4c0,1.4-1.2,2.6-2.6,2.6L366.4,191.2z M366,188.9h14.2v-7.6h-2.4v-4.7
	h0.3v3.3h6.9v-10.1h-23.9v10.1h6.9v-3.3h0.3v4.7h-2.4L366,188.9z"/>
<path class="st2" d="M333.4,188.6c-1.9,0-3.7-0.6-5.2-1.8l-0.1-0.1h-0.6l-0.2,1.5h-7.7v-7.1h1c1.9,1,4,1.6,6.2,1.6
	c1,0.1,1.9-0.2,2.8-0.6l0.2-0.1v-0.7h-0.4c-7.1-0.6-10.2-2.5-10.2-6.1c0-3.1,2.2-5.1,5.9-5.1c1.8,0,3.5,0.6,4.9,1.8l0.1,0.1h0.6
	l0.2-1.5h7.7v6.4h-1c-1.7-0.9-3.6-1.3-5.5-1.3c-1,0-2,0.2-2.9,0.5l-0.2,0.1v0.7h0.4c7.5,0.8,10.3,2.5,10.3,6.2
	S337.2,188.6,333.4,188.6z"/>
<path class="st2" d="M352.9,188.2v-7.5h-3.4l-0.3,2.2h1.9v5.3h-10.2v-6.1h1l1.5-5.4h-1.6v-6.1h16.4l3.2,11.5h1v6.1H352.9z
	 M349.6,178.7h2.8l-1-4.5h-0.7L349.6,178.7z"/>
<polygon class="st2" points="366.8,188.2 366.8,182.1 369.1,182.1 369.1,175.8 367.2,175.8 367.2,179.1 361.9,179.1 361.9,170.6
	384.2,170.6 384.2,179.1 378.9,179.1 378.9,175.8 377,175.8 377,182.1 379.4,182.1 379.4,188.2 "/>
<path class="st0" d="M517,146.5c-2,0-3.1-0.7-3.1-2c0-1,0.5-1.8,1.8-3h0.1c3,0.9,4.1,1.7,4.1,3.1S519,146.5,517,146.5z"/>
<path class="st0" d="M518.5,132.2c-3-0.9-4.1-1.7-4.1-3.1s1-2,3-2s3.1,0.7,3.1,2c0,1-0.5,1.8-1.8,3h-0.1L518.5,132.2z"/>
<path class="st0" d="M517.1,162c-21.8,0-26.3-8.9-26.3-16.3c-0.2-3.8,1.5-7.5,4.4-10l0.3-0.2l-0.3-0.4c-1.7-2.3-2.7-5-2.6-7.9
	c0-7,4.2-15.4,24.5-15.4c7.6,0,13.5,1.2,17.5,3.5c4.4,2.3,7.1,6.9,7,11.8c0.1,2.8-0.8,5.5-2.5,7.7l-0.2,0.3l0.3,0.2
	c2.9,2.6,4.5,6.3,4.3,10.2C543.5,153.1,538.9,162,517.1,162z M517.1,115.1c-14.1,0-21.3,4.1-21.3,12.2c-0.2,3.5,1.8,6.8,4.9,8.4
	c0.1,0,0.1,0,0.1,0.1v0v0.2c0,0.1,0,0.1-0.1,0.1l0,0c-4.6,1.8-6.8,4.9-6.8,9.6c0,8.7,7.8,13.1,23.1,13.1c15.3,0,23.1-4.4,23.1-13.1
	c0-4.7-2.2-7.9-6.6-9.9l-0.1-0.1v-0.3c0-0.1,0-0.1,0.1-0.1c3.1-1.5,4.9-4.6,4.8-8C538.4,119.2,531.2,115.1,517.1,115.1z"/>
<path class="st0" d="M552.4,162c-8.4,0-14.2-5.3-14.2-12.9s5.8-12.9,14.2-12.9s14.2,5.3,14.2,12.9S560.8,162,552.4,162z
	 M552.4,139.4c-6.6,0-11,3.9-11,9.7s4.4,9.7,11,9.7s11-3.9,11-9.7S559,139.4,552.4,139.4L552.4,139.4z"/>
<path class="st0" d="M566,161c-1.7,0-3.1-1.4-3.1-3.1v-15.7c-0.1-1.4,0.8-2.6,2.1-3l0.3-0.1v-4.4H565c-1.5-0.2-2.7-1.5-2.7-3.1
	v-12.3c0-1.6,1.2-2.9,2.7-3.1c2.7-0.3,5.2-1.2,7.4-2.8c0.5-0.4,1.2-0.6,1.8-0.6h13.5c1.7,0,3.1,1.4,3.1,3.1v23.2l0.3,0.1
	c1.3,0.4,2.2,1.6,2.1,3v15.6c0,1.7-1.4,3.1-3.1,3.1L566,161z M566.1,157.8h23.9v-15.4h-2.3c-0.1,0-0.1,0-0.1-0.1v-26.2h-13.4
	l-0.1,0.1c-2.5,1.7-5.3,2.8-8.3,3.2l-0.3,0.1v12.1h2.9c0.1,0,0.1,0,0.1,0.1v10.6c0,0.1,0,0.1-0.1,0.1h-2.3L566.1,157.8z"/>
<path class="st0" d="M615.4,162c-21.8,0-26.3-8.9-26.3-16.3c-0.1-3.8,1.5-7.5,4.4-10l0.3-0.2l-0.2-0.3c-1.7-2.3-2.7-5-2.6-7.9
	c0-7,4.2-15.4,24.5-15.4c7.6,0,13.5,1.2,17.5,3.5c4.4,2.3,7.1,6.9,7,11.8c0.1,2.8-0.8,5.5-2.5,7.7l-0.2,0.3l0.3,0.2
	c2.9,2.6,4.5,6.3,4.3,10.2C641.8,153.1,637.2,162,615.4,162z M615.4,115.1c-14.1,0-21.3,4.1-21.3,12.2c-0.2,3.5,1.8,6.8,4.9,8.4
	l0.1,0.1v0.2c0,0.1,0,0.1-0.1,0.1c-4.6,1.8-6.8,4.9-6.8,9.6c0,8.7,7.8,13.1,23.1,13.1s23.1-4.4,23.1-13.1c0.2-3.7-1.7-7.3-5-9.1
	c-0.5-0.3-1-0.6-1.5-0.8l-0.1-0.1v-0.3c0-0.1,0-0.1,0.1-0.1c3.1-1.5,4.9-4.6,4.8-8C636.7,119.2,629.5,115.1,615.4,115.1z"/>
<path class="st0" d="M616.8,132.2c-3-0.9-4.1-1.7-4.1-3.1s1-2,3-2s3.1,0.7,3.1,2c0,1-0.5,1.8-1.8,3h-0.1L616.8,132.2z"/>
<path class="st0" d="M615.3,146.5c-2,0-3.1-0.7-3.1-2c0-1,0.5-1.8,1.8-3h0.1c3,0.9,4.1,1.7,4.1,3.1S617.3,146.5,615.3,146.5z"/>
<path class="st1" d="M517.1,158.5c-15.1,0-22.8-4.3-22.8-12.8c0-4.5,2.2-7.6,6.6-9.3l0.2-0.1v-0.7l-0.2-0.1c-3.1-1.5-5-4.8-4.8-8.2
	c0-7.9,7.1-11.9,21-11.9s21,4,21,11.8c0.2,3.3-1.6,6.3-4.6,7.7l-0.2,0.1v0.8l0.2,0.1c4.3,2,6.4,5.1,6.4,9.7
	C540,154.1,532.3,158.5,517.1,158.5z M515.6,141.2c-1.4,1.3-1.9,2.1-1.9,3.2c0,1.5,1.1,2.3,3.3,2.3s3.3-0.8,3.3-2.2
	c0-1.8-1.7-2.6-4.3-3.4l-0.2-0.1L515.6,141.2z M517.4,126.8c-2.2,0-3.3,0.8-3.3,2.2c0,1.8,1.7,2.6,4.3,3.4l0.2,0.1l0.2-0.1
	c1.4-1.3,1.9-2.1,1.9-3.2C520.7,127.6,519.6,126.8,517.4,126.8z"/>
<path class="st1" d="M552.4,158.5c-6.4,0-10.7-3.8-10.7-9.4s4.3-9.4,10.7-9.4s10.8,3.8,10.8,9.4S558.9,158.5,552.4,158.5z"/>
<path class="st0" d="M552.4,159c-6.7,0-11.2-4-11.2-9.9s4.5-9.9,11.2-9.9s11.2,4,11.2,9.9S559.2,159,552.4,159z M552.4,139.4
	c-6.6,0-11,3.9-11,9.7s4.4,9.7,11,9.7s11-3.9,11-9.7S559,139.4,552.4,139.4L552.4,139.4z"/>
<path class="st1" d="M566.5,157.5v-14.9h2.4v-11.4h-3v-11.6c3.1-0.4,6-1.5,8.5-3.3h13v26.3h2.4v14.9H566.5z"/>
<path class="st1" d="M615.4,158.5c-15.2,0-22.8-4.3-22.8-12.8c0-4.5,2.2-7.6,6.6-9.3l0.2-0.1v-0.7l-0.2-0.1c-3.1-1.5-5-4.8-4.8-8.2
	c0-7.9,7.1-11.9,21-11.9s21,4,21,11.8c0.2,3.3-1.6,6.3-4.6,7.7l-0.2,0.1v0.8l0.2,0.1c4.3,2,6.4,5.1,6.4,9.7
	C638.3,154.1,630.6,158.5,615.4,158.5z M613.8,141.2c-1.4,1.3-1.9,2.1-1.9,3.2c0,1.5,1.1,2.3,3.3,2.3s3.3-0.8,3.3-2.2
	c0-1.8-1.7-2.6-4.3-3.4L614,141L613.8,141.2z M615.7,126.8c-2.2,0-3.3,0.8-3.3,2.2c0,1.8,1.7,2.6,4.3,3.4l0.2,0.1l0.2-0.1
	c1.4-1.3,1.9-2.1,1.9-3.2C619,127.6,617.9,126.8,615.7,126.8L615.7,126.8z"/>
<path class="st0" d="M547.1,191.6c-1.4,0-2.9-0.2-4.2-0.8l-0.2-0.1l-0.2,0.1c-0.4,0.2-0.8,0.3-1.2,0.3h-8.4c-1.4,0-2.6-1.2-2.6-2.6
	v-7.8c0-0.5,0.2-1.1,0.5-1.5l0.1-0.2l-0.1-0.2c-0.6-1.1-0.8-2.4-0.8-3.6c0-4.7,3.7-8.1,8.9-8.1c1.3,0,2.7,0.2,3.9,0.7l0.2,0.1
	l0.2-0.1c0.4-0.2,0.8-0.3,1.2-0.3h8.4c1.4,0,2.6,1.2,2.6,2.6v7.2c0,0.4-0.1,0.8-0.3,1.2l-0.1,0.2l0.1,0.2c0.8,1.3,1.2,2.9,1.2,4.4
	C556.3,188.3,552.7,191.6,547.1,191.6z M541.8,187.7c1.5,1.1,3.4,1.7,5.3,1.6c4.4,0,7-2.3,7-6.1s-2.6-5.8-9.2-6.8h1
	c1.8,0,3.6,0.4,5.2,1.2h2.1v-7.9H544l-0.2,1.2c-1.4-1.1-3.1-1.7-4.9-1.6c-4,0-6.7,2.3-6.7,5.9s2.9,5.9,9.1,6.7h-0.8
	c-2.1,0-4.1-0.5-5.9-1.6l-0.1-0.1h-2v8.6h9.2L541.8,187.7z"/>
<path class="st0" d="M564.5,191.6c-6.1,0-12.2-1.2-12.2-10.1v-2.3l-0.2-0.1c-0.6-0.5-0.9-1.2-0.9-2v-6.9c0-1.4,1.2-2.6,2.6-2.6h21.4
	c1.4,0,2.6,1.2,2.6,2.6v6.9c0,0.8-0.3,1.5-0.9,2l-0.1,0.1v2.3C576.8,190.4,570.5,191.6,564.5,191.6z M554.5,181.5
	c0,5.7,2.7,7.9,10,7.9s10-2.1,10-7.9v-4.1h1.1v-7.6h-11.4v7.6h1.1v2.9c0,0.8-0.3,0.8-0.7,0.8s-0.7-0.1-0.7-0.8v-10.5h-10.5v7.6h1.1
	L554.5,181.5z"/>
<path class="st0" d="M588.4,191.2c-0.4,0-0.7-0.1-1.1-0.2l-0.2-0.1l-0.2,0.1c-0.3,0.2-0.7,0.2-1,0.2h-9.6c-1.4,0-2.6-1.2-2.6-2.6
	v-6.9c0-0.8,0.3-1.5,0.9-2l0.1-0.1v-0.4l-0.1-0.2c-0.6-0.5-0.9-1.2-0.9-2v-6.9c0-1.4,1.2-2.6,2.6-2.6h13c0.3,0,0.6,0.1,0.9,0.2h0.2
	c0.3-0.1,0.6-0.2,0.9-0.2h8.5c1.4,0,2.6,1.2,2.6,2.6v6.9c0,0.8-0.3,1.5-0.9,2l-0.1,0.1v9.4c0,1.4-1.2,2.6-2.6,2.6L588.4,191.2
	L588.4,191.2z M588.1,188.9h11.2v-11.5h1.1v-7.6h-9.3v5.4l-1.5-5.4H576v7.6h1.1v3.9H576v7.6h10.4v-6.1L588.1,188.9z M585.3,182.1v-3
	l0.9,3H585.3z"/>
<path class="st3" d="M547.1,188.6c-1.9,0-3.7-0.6-5.2-1.8l-0.1-0.1h-0.6l-0.2,1.5h-7.7v-7.1h1c1.9,1,4,1.6,6.2,1.6
	c1,0.1,1.9-0.2,2.8-0.6l0.2-0.1v-0.7h-0.3c-7.1-0.6-10.2-2.5-10.2-6.1c0-3.1,2.2-5.1,5.9-5.1c1.8,0,3.5,0.6,4.9,1.8l0.1,0.1h0.6
	l0.2-1.5h7.7v6.4h-1c-1.7-0.9-3.6-1.3-5.5-1.3c-1,0-2,0.2-2.9,0.5l-0.2,0.1v0.7h0.3c7.5,0.8,10.3,2.5,10.3,6.2
	S551,188.6,547.1,188.6z"/>
<path class="st3" d="M564.5,188.6c-6.9,0-9.2-1.8-9.2-7.1v-4.9h-1v-6.1h9v9.7c0,1.1,0.5,1.6,1.5,1.6s1.5-0.5,1.5-1.6v-3.7h-1.1v-6.1
	h9.8v6.1h-1v4.9C573.8,186.8,571.5,188.6,564.5,188.6z"/>
<polygon class="st3" points="588.7,188.2 585.3,176.3 584.5,176.3 584.5,182.9 585.6,182.9 585.6,188.2 576.8,188.2 576.8,182.1
	577.8,182.1 577.8,176.7 576.8,176.7 576.8,170.6 589,170.6 591,178.1 591.8,178.1 591.8,170.6 599.6,170.6 599.6,176.7
	598.5,176.7 598.5,188.2 "/>
<polygon class="st1" points="158,96.8 158,1.6 257.5,1.6 257.5,56.1 245.7,56.1 245.7,71.4 230.5,71.4 230.5,96.8 "/>
<path class="st1" d="M287.2,98.3c-21.1,0-49.2-4.3-49.2-41.4v-2h-3.9V1.6h106.4v53.3h-3.9v2C336.5,94,308.4,98.3,287.2,98.3z"/>
<path class="st1" d="M400.6,98.3c-5.2,0.1-10.3-0.6-15.3-1.9v0.3h-67.9V1.6h107.4v36.5l1.5-0.5v54.2l-8.5,3.7
	C413.5,97.4,407.9,98.3,400.6,98.3z"/>
<path class="st1" d="M454.8,98.3c-21.1,0-49.2-4.3-49.2-41.4v-2h-3.9V1.6h106.4v53.3h-3.9v2C504,94,475.9,98.3,454.8,98.3z"/>
<path class="st1" d="M536,98.3c-32.5,0-52.7-18.8-52.7-49.2S503.5,0,536,0s52.7,18.8,52.7,49.2S568.5,98.3,536,98.3z"/>
<path class="st1" d="M647.2,98.3c-5.2,0.1-10.3-0.6-15.3-1.9v0.3H564V1.6h107.3v36.5l1.5-0.5v54.2l-8.5,3.7
	C660,97.4,654.4,98.3,647.2,98.3z"/>
<polygon class="st1" points="649.2,96.8 649.2,43.4 652.3,43.4 652.3,1.6 739.4,1.6 751,43.4 758.3,43.4 758.3,96.8 "/>
<polygon class="st4" points="161.5,93.2 161.5,5.1 254,5.1 254,52.5 242.2,52.5 242.2,67.8 226.9,67.8 226.9,93.2 "/>
<path class="st4" d="M287.2,94.8c-16,0-26.4-2.6-33.8-8.3c-8-6.2-11.9-15.9-11.9-29.6v-5.6h-3.9V5.1H337v46.2h-3.9v5.6
	C333,90.5,308.5,94.8,287.2,94.8z"/>
<path class="st4" d="M400.6,94.8c-7.4,0-13.6-1.1-18.8-3.3v1.8h-60.8V5.1h100.2V43l1.5-0.5v47l-6.4,2.8
	C412.5,94,407.4,94.8,400.6,94.8z"/>
<path class="st4" d="M454.8,94.8c-16,0-26.4-2.6-33.8-8.3c-8-6.2-11.9-15.9-11.9-29.6v-5.6h-3.9V5.1h99.3v46.2h-3.9v5.6
	C500.5,90.5,476.1,94.8,454.8,94.8z"/>
<path class="st4" d="M536,94.8c-15,0-27-4-35.6-11.8c-8.8-8-13.5-19.7-13.5-33.8s4.7-25.8,13.5-33.8S521,3.5,536,3.5s27,4,35.7,11.9
	s13.5,19.7,13.5,33.8S580.5,75,571.8,83C563,90.8,551,94.8,536,94.8z"/>
<path class="st4" d="M647.2,94.8c-7.4,0-13.6-1.1-18.8-3.3v1.8h-60.8V5.1h100.2V43l1.5-0.5v47l-6.3,2.8
	C659.1,94,653.9,94.8,647.2,94.8z"/>
<polygon class="st4" points="652.7,93.2 652.7,47 655.9,47 655.9,5.1 736.7,5.1 748.3,47 754.8,47 754.8,93.2 "/>
<polygon class="st1" points="169,85.7 169,54.5 173,54.5 173,43.9 169,43.9 169,12.6 246.5,12.6 246.5,45 234.7,45 234.7,60.4
	219.5,60.4 219.5,85.7 "/>
<path class="st1" d="M287.2,87.3c-27.5,0-38.2-8.5-38.2-30.4v-13h-3.9V12.6h84.3v31.3h-3.9V57C325.5,78.8,314.7,87.3,287.2,87.3z
	 M287.1,53.8h1.2c0.1-0.4,0.1-0.8,0.1-1.2v-8.7h-1.5v8.7C287,53,287,53.4,287.1,53.8z"/>
<path class="st1" d="M400.6,87.3c-12.6,0-20.5-3.3-26.3-11.4v9.9h-45.8V54.5h3.9V43.9h-3.9V12.6h85.2v31.3H407l-3.8,4.1l2.9,4.4
	c1.2,1.8,2,2.1,3.6,2.1c0.4,0,0.9,0,1.3-0.1l4.2-1.4v31.7l-1.9,0.8C410.5,86.7,406.3,87.3,400.6,87.3z"/>
<path class="st1" d="M454.8,87.3c-27.5,0-38.2-8.5-38.2-30.4v-13h-3.9V12.6H497v31.3h-3.9V57C493,78.8,482.3,87.3,454.8,87.3z
	 M454.6,53.8h1.2c0.1-0.4,0.1-0.8,0.1-1.2v-8.7h-1.5v8.7C454.5,53,454.5,53.4,454.6,53.8L454.6,53.8z"/>
<path class="st1" d="M536,87.3c-26.5,0-41.7-13.9-41.7-38.1S509.6,11,536,11s41.7,13.9,41.7,38.1S562.5,87.3,536,87.3z M536,44.5
	c-0.5,0-1.8,0-1.8,4.7s1.2,4.7,1.8,4.7s1.8,0,1.8-4.7S536.6,44.5,536,44.5z"/>
<path class="st1" d="M647.2,87.3c-12.6,0-20.5-3.3-26.3-11.4v9.9H575V54.5h4V43.9h-3.9V12.6h85.2v31.3h-6.7l-3.9,4.1l2.9,4.4
	c1.2,1.8,1.9,2.1,3.7,2.1c0.4,0,0.9,0,1.3-0.1l4.2-1.4v31.7l-1.9,0.8C657.1,86.7,652.8,87.3,647.2,87.3z"/>
<polygon class="st1" points="660.2,85.7 660.2,54.5 664.9,54.5 667.9,43.9 663.4,43.9 663.4,12.6 731,12.6 742.6,54.5 747.3,54.5
	747.3,85.7 "/>
<path class="st5" d="M172.2,57.6h3.9V40.7h-3.9v-25h71.1v26.2h-29.7v-4.1h-5.9v7.5h23.8v12h-23.8v3.3h8.5v22h-44.1L172.2,57.6
	L172.2,57.6z"/>
<path class="st5" d="M252.2,56.9V40.7h-3.9v-25h35.6v36.9c0,3.6,1.7,4.4,3.9,4.4s3.9-0.8,3.9-4.4V40.7h-3.9v-25h38.5v25h-3.9v16.2
	c0,20.1-9.1,27.2-35.1,27.2S252.2,77.1,252.2,56.9z"/>
<path class="st5" d="M373.7,68.7l-6.1-12.3h-0.4v3.3c-0.1,4.7,1.3,9.3,4,13.2v9.6h-39.5v-25h3.9V40.7h-3.9v-25h39.5v22h-4v8.5h0.4
	l7.5-8.5v-22h35.5v25h-4.9l-6.4,6.9l4.2,6.5c1.7,2.6,3.3,3.5,6.3,3.5c0.8,0,1.5-0.1,2.3-0.3v25.2c-2.5,1.1-6.6,1.6-11.4,1.6
	C386.3,84.1,379.2,79.7,373.7,68.7z"/>
<path class="st5" d="M419.7,56.9V40.7h-3.9v-25h35.6v36.9c0,3.6,1.7,4.4,3.9,4.4s3.9-0.8,3.9-4.4V40.7h-3.9v-25h38.5v25h-3.9v16.2
	c0,20.1-9.1,27.2-35.1,27.2S419.7,77.1,419.7,56.9z"/>
<path class="st5" d="M497.5,49.2c0-22.4,13.9-35,38.5-35s38.5,12.6,38.5,35s-13.9,35-38.5,35S497.5,71.6,497.5,49.2z M540.9,49.2
	c0-5.3-1.6-7.9-4.9-7.9s-4.9,2.5-4.9,7.9s1.6,7.8,4.9,7.8S540.9,54.5,540.9,49.2z"/>
<path class="st5" d="M620.2,68.7l-6.1-12.3h-0.4v3.3c-0.1,4.7,1.3,9.3,3.9,13.2v9.6H578v-25h4V40.7h-3.9v-25h39.5v22h-3.9v8.5h0.4
	l7.5-8.5v-22h35.5v25h-4.9l-6.4,6.9l4.2,6.5c1.7,2.6,3.3,3.5,6.3,3.5c0.8,0,1.5-0.1,2.3-0.3v25.2c-2.5,1.1-6.6,1.6-11.4,1.6
	C632.8,84.1,625.7,79.7,620.2,68.7z"/>
<path class="st5" d="M663.4,57.6h3.9l4.7-16.9h-5.5v-25h62.1l11.6,41.9h3.9v25h-37V55.5h-9.7l-0.8,5.1h6.7v22h-39.9V57.6z
	 M705.5,45.2l-3.1-13.5H702l-3.2,13.5H705.5z"/>
<path class="st1" d="M525,344c-32.5,0-52.7-18.8-52.7-49.2s20.2-49.2,52.7-49.2s52.7,18.8,52.7,49.2S557.5,344,525,344z
	 M515.7,295.6h18.6v-2.6h-18.6"/>
<path class="st1" d="M619.6,344c-4.2,0-8.4-0.5-12.4-1.6h-53.6v-54c-0.7-2.9-1.1-5.8-1.1-8.8c0-20,15.2-34,37-34c4,0,8,0.5,11.9,1.6
	h52.9v46.3c2.4,4.9,3.5,10.2,3.4,15.6C657.7,330,642.4,344,619.6,344z"/>
<polygon class="st1" points="632.6,342.5 632.6,289.1 635.8,289.1 635.8,247.2 722.8,247.2 734.5,289.1 741.8,289.1 741.8,342.5 "/>
<path class="st1" d="M801.8,344c-5.2,0.1-10.3-0.6-15.3-1.9v0.3h-67.9v-95.2H826v36.6l1.5-0.5v54.2l-8.5,3.7
	C814.7,343.1,809,344,801.8,344z"/>
<polygon class="st1" points="803.8,342.5 803.8,289.1 807,289.1 807,247.2 894.1,247.2 905.7,289.1 913,289.1 913,342.5 "/>
<path class="st4" d="M525,340.5c-15,0-27-4-35.7-11.9s-13.5-19.7-13.5-33.8s4.7-25.7,13.5-33.7s20.7-11.9,35.7-11.9s27,4,35.7,11.9
	c8.7,7.9,13.5,19.7,13.5,33.8s-4.7,25.7-13.5,33.8C552,336.5,540,340.5,525,340.5z M530.8,296.2v-2.7h-11.6"/>
<path class="st4" d="M619.6,340.5c-4.1,0-8.1-0.5-12-1.6h-50.4v-49.8h0.3c-0.9-3.1-1.4-6.2-1.4-9.4c0-18,13.8-30.5,33.4-30.5
	c3.9,0,7.8,0.5,11.5,1.6h49.7v43.7c2.4,4.5,3.5,9.5,3.4,14.6C654.1,328.1,640.6,340.5,619.6,340.5z"/>
<polygon class="st4" points="636.2,339 636.2,292.6 639.3,292.6 639.3,250.8 720.2,250.8 731.8,292.6 738.2,292.6 738.2,339 "/>
<path class="st4" d="M801.8,340.5c-7.4,0-13.6-1.1-18.8-3.4v1.9h-60.8v-88.2h100.1v37.9l1.5-0.5v47l-6.4,2.8
	C813.8,339.6,808.5,340.5,801.8,340.5z"/>
<polygon class="st4" points="807.3,339 807.3,292.6 810.5,292.6 810.5,250.8 891.4,250.8 903,292.6 909.5,292.6 909.5,339 "/>
<path class="st1" d="M525,333c-26.5,0-41.7-13.9-41.7-38.1s15.2-38.1,41.7-38.1s41.7,13.9,41.7,38.1S551.5,333,525,333z M525,290.1
	c-0.5,0-1.8,0-1.8,4.7s1.2,4.7,1.8,4.7s1.8,0,1.8-4.7S525.5,290.1,525,290.1z"/>
<path class="st1" d="M619.6,333c-6.3,0.2-12.6-1.5-17.9-4.9l-0.5,3.3h-36.5v-34.8h7c-5.2-4-8.2-10.3-8-16.9c0-13.8,10.4-23,26-23
	c5.9-0.1,11.7,1.5,16.7,4.6l0.5-3.1h36.5v32.4h-6c6,4.1,9.5,9.9,9.5,18.5C646.6,323.8,636.3,333,619.6,333z"/>
<polygon class="st1" points="643.7,331.4 643.7,300.1 648.3,300.1 651.3,289.5 646.8,289.5 646.8,258.3 714.5,258.3 726.1,300.1
	730.7,300.1 730.7,331.4 "/>
<path class="st1" d="M801.8,333c-12.6,0-20.5-3.3-26.3-11.4v9.9h-45.8v-31.4h3.9v-10.6h-3.9v-31.2H815v31.3h-6.7l-3.8,4.1l2.9,4.4
	c1.2,1.8,2,2.1,3.7,2.1c0.4,0,0.9,0,1.3-0.1l4.1-1.4v31.7l-1.9,0.8C811.8,332.4,807.5,333,801.8,333z"/>
<polygon class="st1" points="814.9,331.4 814.9,300.1 819.6,300.1 822.6,289.5 818.1,289.5 818.1,258.3 885.7,258.3 897.3,300.1
	902,300.1 902,331.4 "/>
<path class="st3" d="M486.5,294.8c0-22.4,13.9-35,38.5-35c24.6,0,38.5,12.6,38.5,35s-13.8,35-38.5,35S486.5,317.2,486.5,294.8z
	 M529.9,294.8c0-5.3-1.6-7.9-4.9-7.9s-4.9,2.6-4.9,7.9s1.6,7.9,4.9,7.9S529.9,300.1,529.9,294.8z"/>
<path class="st3" d="M599.6,322.9h-0.3l-0.8,5.3h-30.7v-28.5h5.6c6.8,3.8,14.4,5.8,22.1,5.8c3.3,0.2,6.6-0.5,9.6-1.9v-0.4
	c-27.1-2.4-38.4-10-38.4-23.6c0-12.2,9-19.9,22.8-19.9c6.9-0.2,13.6,2.3,18.7,6.9h0.4l0.8-5.3h30.7v26h-5.6
	c-4.9-2.9-12.6-4.7-19.7-4.7c-3.4-0.1-6.8,0.6-9.9,1.9v0.4c28.1,3,38.6,9.7,38.6,24.1c0,13.3-9,20.7-23.9,20.7
	C611.7,329.8,606,327.8,599.6,322.9z"/>
<path class="st3" d="M646.8,303.3h3.9l4.7-16.9h-5.5v-25H712l11.6,41.9h3.9v25h-36.9v-27.2h-9.7l-0.8,5.1h6.6v22h-39.9V303.3z
	 M689,290.9l-3.1-13.5h-0.4l-3.1,13.5H689z"/>
<path class="st3" d="M774.8,314.4l-6.1-12.3h-0.4v3.3c-0.1,4.7,1.3,9.3,3.9,13.2v9.6h-39.5v-25h3.9v-16.9h-3.9v-25h39.6v22h-3.9v8.5
	h0.4l7.5-8.5v-22h35.5v25H807l-6.4,6.9l4.2,6.5c1.7,2.5,3.3,3.5,6.3,3.5c0.8,0,1.5-0.1,2.3-0.3v25.3c-2.5,1.1-6.6,1.6-11.4,1.6
	C787.4,329.8,780.3,325.4,774.8,314.4z"/>
<path class="st3" d="M818.1,303.3h3.9l4.7-16.9h-5.5v-25h62.1l11.6,41.9h3.9v25h-37v-27.2h-9.7l-0.8,5.1h6.6v22h-39.9V303.3z
	 M860.2,290.9l-3.2-13.5h-0.4l-3.2,13.5L860.2,290.9z"/>
<path class="st0" d="M485.1,406.6c-1.7,0-3.1-1.4-3.1-3.1v-15.7c0-1.3,0.9-2.5,2.1-3l0.3-0.1v-4.4h-0.3c-1.5-0.2-2.7-1.5-2.7-3.1
	v-12.3c0-1.6,1.2-2.9,2.7-3.1c2.7-0.3,5.2-1.2,7.4-2.8c0.5-0.4,1.2-0.6,1.8-0.6h13.6c1.7,0,3.1,1.4,3.1,3.1v23.2l0.3,0.1
	c1.3,0.4,2.2,1.6,2.1,3v15.6c0,1.7-1.4,3.1-3.1,3.1h-24.2V406.6z M485.2,403.4h24V388h-2.4v-26.3h-13.5l-0.1,0.1
	c-2.5,1.7-5.3,2.8-8.3,3.2h-0.3v12.2h3V388h-2.4L485.2,403.4z"/>
<path class="st0" d="M534.4,387.6c-1.9,0-2.7-1.5-2.7-5s0.8-5,2.7-5c2.2,0,2.6,2,2.6,5S536.6,387.6,534.4,387.6z"/>
<path class="st0" d="M534.4,407.6c-16.6,0-26.1-9.1-26.1-25s9.5-25,26.1-25s26.1,9.1,26.1,25S551,407.6,534.4,407.6z M534.4,360.8
	c-15,0-22.9,7.5-22.9,21.8s7.9,21.8,22.9,21.8s22.9-7.5,22.9-21.8S549.4,360.7,534.4,360.8z"/>
<path class="st0" d="M569.8,407.6c-8.4,0-14.2-5.3-14.2-12.9s5.8-12.9,14.2-12.9s14.2,5.3,14.2,12.9S578,407.6,569.8,407.6z
	 M569.8,385c-6.6,0-11,3.9-11,9.7s4.4,9.7,11,9.7s11-3.9,11-9.7S576.3,385,569.8,385z"/>
<path class="st0" d="M583.3,406.6c-1.7,0-3.1-1.4-3.1-3.1l0,0v-15.7c0-1.3,0.9-2.5,2.1-3l0.3-0.1v-4.4h-0.3
	c-1.6-0.2-2.7-1.5-2.7-3.1v-12.3c0-1.6,1.2-2.9,2.7-3.1c2.7-0.3,5.2-1.2,7.4-2.8c0.5-0.4,1.2-0.6,1.8-0.6h13.6
	c1.7,0,3.1,1.4,3.1,3.1v23.2l0.3,0.1c1.3,0.4,2.2,1.6,2.1,3v15.6c0,1.7-1.4,3.1-3.1,3.1h-24.2V406.6z M583.4,403.4h24V388H605v-26.3
	h-13.4l-0.1,0.1c-2.5,1.7-5.3,2.8-8.3,3.2h-0.3v12.2h3V388h-2.4L583.4,403.4z"/>
<path class="st0" d="M610.6,406.6c-1.7,0-3.1-1.4-3.1-3.1v-13.1c0-1.4,0.9-2.6,2.2-3c1.7-0.5,3.2-1,4.7-1.5l1.1-0.4l-1.1-0.4
	c-5-1.8-8-6.1-8-11.8s3.2-15.8,24.8-15.8c20.1,0,24.3,9.1,24.3,16.7c0.1,3-0.8,6-2.7,8.4l-0.3,0.4l0.4,0.2c1,0.5,1.7,1.6,1.7,2.8
	v17.6c0,1.7-1.4,3.1-3.1,3.1l0,0L610.6,406.6z M628.1,368.2c2.6,1.1,4.2,3.8,4,6.6c0,6.5-5.9,10.9-21.1,15.6l-0.3,0.1v12.9h40.8
	v-17.3h-4.3l-0.1,0.2c-1.2,1.6-3,2.4-5.7,2.4h-2.1v-0.5l4.4-2.4c6.6-3.5,8.8-6.5,8.8-11.6c0-9-6.9-13.5-21.1-13.5
	s-21.6,4.4-21.6,12.6c0,5.9,3.7,9.5,10,9.5s9.9-3.5,9.9-9c0-2.4-0.7-4.4-1.8-5.1l-0.1-0.1L628.1,368.2L628.1,368.2z"/>
<path class="st1" d="M485.5,403.1v-14.9h2.4v-11.4h-3v-11.6c3.1-0.4,6-1.5,8.5-3.3h13v26.2h2.4V403L485.5,403.1L485.5,403.1z"/>
<path class="st1" d="M534.4,404.1c-14.8,0-22.6-7.5-22.6-21.5s7.8-21.5,22.6-21.5s22.6,7.5,22.6,21.5S549.2,404.1,534.4,404.1z
	 M534.4,377.3c-2.6,0-3,2.7-3,5.3s0.3,5.3,3,5.3s2.9-2.6,2.9-5.3S537,377.3,534.4,377.3z"/>
<path class="st1" d="M569.8,404.1c-6.4,0-10.7-3.8-10.7-9.4s4.3-9.4,10.7-9.4s10.7,3.8,10.7,9.4S576.2,404.1,569.8,404.1z"/>
<path class="st1" d="M583.7,403.1v-14.9h2.4v-11.4h-3v-11.6c3.1-0.4,6-1.5,8.5-3.3h13v26.2h2.4V403L583.7,403.1L583.7,403.1z"/>
<path class="st1" d="M611,403.1v-12.4c15.4-4.7,21.4-9.2,21.4-15.9c0-3.3-1.4-5.6-4.2-6.8l-0.3-0.1l-0.6,0.8l0.3,0.2
	c1,0.7,1.7,2.6,1.7,4.9c0,5.4-3.7,8.7-9.7,8.7s-9.7-3.4-9.7-9.2c0-8,7.4-12.3,21.3-12.3s20.8,4.3,20.8,13.2c0,5-2.2,7.9-8.7,11.4
	l-4.5,2.5v0.9h2.5c2.9,0,4.7-0.8,6-2.5h3.9v16.8L611,403.1z"/>
<path class="st0" d="M550.1,437.2c-1.4,0-2.9-0.2-4.2-0.8l-0.2-0.1l-0.2,0.1c-0.4,0.2-0.8,0.3-1.2,0.3h-8.4c-1.4,0-2.6-1.1-2.6-2.6
	c0,0,0,0,0,0l0,0v-7.8c0-0.5,0.2-1.1,0.5-1.5l0.1-0.2l-0.1-0.2c-0.6-1.1-0.8-2.4-0.8-3.6c0-4.8,3.7-8.1,8.9-8.1
	c1.3,0,2.7,0.2,3.9,0.7l0.2,0.1l0.2-0.1c0.4-0.2,0.8-0.3,1.2-0.3h8.4c1.4,0,2.6,1.2,2.6,2.6v7.2c0,0.4-0.1,0.8-0.3,1.2l-0.1,0.2
	l0.1,0.2c0.8,1.3,1.2,2.8,1.2,4.4C559.2,434,555.6,437.2,550.1,437.2z M544.8,433.4c1.5,1.1,3.4,1.7,5.3,1.7c4.4,0,7-2.3,7-6.1
	s-2.6-5.8-9.2-6.8c0.3-0.1,0.7-0.1,1,0c1.8,0,3.6,0.4,5.2,1.2h2.1v-7.9H547l-0.2,1.2c-1.4-1.1-3.1-1.7-4.9-1.6c-4,0-6.7,2.3-6.7,5.9
	s2.9,5.8,9.1,6.7h-0.8c-2.1,0-4.1-0.5-5.9-1.5h-2.1v8.6h9.2L544.8,433.4z"/>
<path class="st0" d="M569.2,436.8H557c-1.4,0-2.6-1.2-2.6-2.6v-6.9c0-1,0.5-1.9,1.4-2.3l0.5-0.2l-0.3-0.4c-0.4-0.5-0.7-1.1-0.7-1.7
	v-6.9c0-1.4,1.2-2.6,2.6-2.6H575c1.2,0,2.2,0.8,2.5,1.9l2.7,9.8l0.2,0.1c0.9,0.4,1.5,1.4,1.5,2.4v6.9c0,1.4-1.2,2.6-2.6,2.6
	L569.2,436.8z M568.8,434.6h11V427h-1.2l-3.2-11.5h-17.8v7.6h1.4l-1.1,3.9h-1.2v7.6h11.8v-6.8h-1.8l0.1-0.6h1.9L568.8,434.6z
	 M567.4,423.6l0.4-1.8l0.4,1.8H567.4z"/>
<path class="st0" d="M583.1,436.8c-1.4,0-2.6-1.2-2.6-2.6v-6.4h-2.2c-1.4,0-2.6-1.2-2.6-2.6v-9.3c0-1.4,1.1-2.6,2.6-2.6c0,0,0,0,0,0
	h23.1c1.4,0,2.6,1.2,2.6,2.6v9.4c0,1.4-1.2,2.6-2.6,2.6h-2.3v6.4c0,1.4-1.2,2.6-2.6,2.6L583.1,436.8z M582.8,434.6H597V427h-2.3
	v-4.7h0.3v3.3h6.9v-10.1H578v10.1h6.9v-3.3h0.3v4.7h-2.3v7.6L582.8,434.6z"/>
<path class="st2" d="M550.1,434.2c-1.9,0-3.7-0.6-5.2-1.8l-0.1-0.1h-0.6l-0.2,1.5h-7.8v-7h1c1.9,1,4,1.6,6.2,1.6
	c1,0.1,1.9-0.2,2.8-0.6l0.2-0.1V427H546c-7.1-0.6-10.2-2.5-10.2-6.1c0-3.1,2.2-5.1,5.9-5.1c1.8,0,3.5,0.6,4.9,1.8l0.1,0.1h0.6
	l0.2-1.5h7.7v6.4h-1c-1.7-0.9-3.6-1.3-5.5-1.3c-1,0-2,0.2-2.9,0.5l-0.2,0.1v0.7h0.3c7.5,0.8,10.3,2.5,10.3,6.2
	C556.2,432.3,554,434.2,550.1,434.2z"/>
<path class="st2" d="M569.7,433.8v-7.5h-3.4l-0.3,2.2h1.9v5.3h-10.2v-6.1h1l1.5-5.4h-1.7v-6.1h16.4l3.2,11.5h1v6.1L569.7,433.8z
	 M566.5,424.3h2.8l-1-4.5h-0.7L566.5,424.3z"/>
<polygon class="st2" points="583.5,433.8 583.5,427.7 585.9,427.7 585.9,421.5 584,421.5 584,424.8 578.7,424.8 578.7,416.2
	601,416.2 601,424.8 595.7,424.8 595.7,421.5 593.8,421.5 593.8,427.7 596.2,427.7 596.2,433.8 "/>
<path class="st0" d="M731.8,406.6c-1.7,0-3.1-1.4-3.1-3.1l0,0v-15.7c0-1.3,0.9-2.5,2.1-3l0.3-0.1v-4.4h-0.3
	c-1.5-0.2-2.7-1.5-2.7-3.1v-12.3c0-1.6,1.2-2.9,2.7-3.1c2.7-0.3,5.2-1.2,7.4-2.8c0.5-0.4,1.2-0.6,1.8-0.6h13.6
	c1.7,0,3.1,1.4,3.1,3.1v23.2l0.3,0.1c1.3,0.4,2.2,1.6,2.1,3v15.6c0,1.7-1.4,3.1-3.1,3.1h-24.2V406.6z M731.9,403.4h24V388h-2.5
	v-26.3H740l-0.1,0.1c-2.5,1.7-5.3,2.8-8.3,3.2h-0.3v12.2h3V388h-2.4L731.9,403.4z"/>
<path class="st0" d="M781.1,407.6c-16.6,0-26.2-9.1-26.2-25s9.5-25,26.2-25s26.1,9.1,26.1,25S797.7,407.6,781.1,407.6z M781.1,360.8
	c-15,0-22.9,7.5-22.9,21.8s7.9,21.8,22.9,21.8s22.9-7.5,22.9-21.8S796,360.7,781.1,360.8z"/>
<path class="st0" d="M781.1,387.6c-1.9,0-2.7-1.5-2.7-5s0.8-5,2.7-5c2.2,0,2.6,2,2.6,5S783.2,387.6,781.1,387.6z"/>
<path class="st0" d="M816.4,407.6c-8.4,0-14.2-5.3-14.2-12.9s5.8-12.9,14.2-12.9s14.2,5.3,14.2,12.9S824.8,407.6,816.4,407.6z
	 M816.4,385c-6.6,0-11,3.9-11,9.7s4.4,9.7,11,9.7s11-3.9,11-9.7S823,385,816.4,385z"/>
<path class="st0" d="M830,406.6c-1.7,0-3.1-1.4-3.1-3.1l0,0v-15.7c0-1.3,0.9-2.5,2.1-3l0.3-0.1v-4.4H829c-1.5-0.2-2.7-1.5-2.7-3.1
	v-12.3c0-1.6,1.2-2.9,2.7-3.1c2.7-0.3,5.2-1.2,7.4-2.8c0.5-0.4,1.2-0.6,1.8-0.6h13.6c1.7,0,3.1,1.4,3.1,3.1v23.2l0.3,0.1
	c1.3,0.4,2.2,1.6,2.1,3v15.6c0,1.7-1.4,3.1-3.1,3.1H830V406.6z M830.1,403.4H854V388h-2.4v-26.3h-13.4l-0.1,0.1
	c-2.5,1.7-5.3,2.8-8.3,3.2h-0.3v12.2h3V388h-2.4L830.1,403.4z"/>
<path class="st0" d="M879.4,406.6c-1.7,0-3.1-1.4-3.1-3.1l0,0v-4.2h-20c-1.7,0-3.1-1.4-3.1-3.1v-14.9c0-1.3,0.8-2.4,1.9-2.9
	c4.3-1.8,6-3.2,7.8-8.3c3.2-9.1,7.9-13.2,15.2-13.2c6.1,0,10.6,3,12.2,8l0.1,0.3h8.3c1.7,0,3.1,1.4,3.1,3.1V385l0.2,0.1
	c1.1,0.5,1.8,1.6,1.8,2.8v15.6c0,1.7-1.4,3.1-3.1,3.1L879.4,406.6L879.4,406.6z M879.5,403.4h21.2V388h-2v-19.6h-7.8v0.4
	c-0.3,8.2-7.1,14.9-15.9,15.4h-0.1v-0.4h0.1c7.8-2.3,12.8-8,12.8-14.6c0-5.7-3.5-9-9.6-9s-9.4,3.1-12.2,11c-2,5.6-4,7.9-9.3,10.1
	l-0.2,0.1v14.7h23.1L879.5,403.4z"/>
<path class="st1" d="M732.1,403.1v-14.9h2.4v-11.4h-3v-11.6c3.1-0.4,6-1.5,8.5-3.3h13v26.2h2.4V403L732.1,403.1L732.1,403.1z"/>
<path class="st0" d="M731.1,404.1v-16.9h2.4v-9.4h-3v-13.5l0.5-0.1c3.1-0.3,6-1.4,8.5-3.2l0.2-0.1H754v26.2h2.4V404L731.1,404.1
	L731.1,404.1z M731.4,403.9h25v-16.4h-2.5v-26.3h-14.1l-0.1,0.1c-2.6,1.8-5.5,2.9-8.6,3.3h-0.3v13.1h3v9.8h-2.5L731.4,403.9z"/>
<path class="st1" d="M781.1,404.1c-14.8,0-22.7-7.5-22.7-21.5s7.8-21.5,22.7-21.5s22.6,7.5,22.6,21.5S795.8,404.1,781.1,404.1z
	 M781.1,377.3c-2.6,0-3,2.7-3,5.3s0.3,5.3,3,5.3s2.9-2.6,2.9-5.3S783.6,377.3,781.1,377.3z"/>
<path class="st0" d="M781.1,405.1c-15.3,0-23.7-8-23.7-22.5s8.4-22.5,23.7-22.5s23.6,8,23.6,22.5S796.3,405.1,781.1,405.1z
	 M781.1,360.3c-15.1,0-23.4,7.9-23.4,22.3s8.3,22.3,23.4,22.3s23.4-7.9,23.4-22.3S796.1,360.2,781.1,360.3z M781.1,387.1
	c-1.1,0-2.2-0.5-2.2-4.5s1-4.5,2.2-4.5s2.1,0.8,2.1,4.5S782.3,387.1,781.1,387.1L781.1,387.1z M781.1,378.3c-1.2,0-2,0.7-2,4.3
	s0.8,4.3,2,4.3s1.9-0.7,1.9-4.3S782.2,378.3,781.1,378.3z"/>
<path class="st1" d="M816.4,404.1c-6.4,0-10.7-3.8-10.7-9.4s4.3-9.4,10.7-9.4s10.7,3.8,10.7,9.4S822.8,404.1,816.4,404.1z"/>
<path class="st0" d="M816.4,405.1c-7,0-11.7-4.2-11.7-10.4s4.7-10.4,11.7-10.4s11.7,4.2,11.7,10.4S823.4,405.1,816.4,405.1z
	 M816.4,384.5c-6.9,0-11.5,4.1-11.5,10.2s4.6,10.2,11.5,10.2s11.5-4.1,11.5-10.2S823.3,384.5,816.4,384.5z"/>
<path class="st1" d="M830.4,403.1v-14.9h2.4v-11.4h-3v-11.6c3.1-0.4,6-1.5,8.5-3.3h13v26.2h2.4V403L830.4,403.1L830.4,403.1z"/>
<path class="st0" d="M829.4,404.1v-16.9h2.4v-9.4h-3v-13.5l0.5-0.1c3.1-0.3,6-1.4,8.5-3.2l0.2-0.1h14.4v26.2h2.4V404L829.4,404.1
	L829.4,404.1z M829.6,403.9h24.9v-16.4h-2.4v-26.3H838l-0.1,0.1c-2.6,1.8-5.5,2.9-8.6,3.3H829v13.1h3v9.8h-2.4L829.6,403.9z"/>
<path class="st1" d="M879.8,403.1v-7.3h-23.1v-14.2c5.4-2.3,7.6-4.6,9.5-10.3c2.7-7.7,6.1-10.8,11.9-10.8s9.3,3.2,9.3,8.7
	c0,6.5-5,12.1-12.6,14.3l-0.3,0.1v1h0.4c9.1-0.5,15.9-7.3,16.1-15.8h7.3v19.6h2v14.8L879.8,403.1z"/>
<path class="st0" d="M878.8,404.1v-7.3h-23.1v-15.9l0.4-0.1c5.3-2.2,7.3-4.3,9.2-9.8c2.8-8.1,6.7-11.5,12.8-11.5
	c6.5,0,10.3,3.6,10.3,9.7c0,3.8-1.6,7.4-4.3,10l0.5,0.6c3.5-2.8,5.5-7,5.5-11.5v-0.6h9.3v19.5h2v16.9L878.8,404.1z M879,403.9h22.2
	v-16.4h-2v-19.6h-8.8v0.4c0,7.4-5.3,13.5-12.8,15c6.6-2.7,10.7-8.1,10.7-14.2s-3.8-9.5-10.1-9.5s-9.8,3.3-12.6,11.4
	c-1.9,5.5-4,7.7-9.3,9.9l-0.2,0.1v15.6h23.1L879,403.9z"/>
<path class="st0" d="M797,436.8c-0.3,0-0.7-0.1-1-0.2h-0.3c-0.3,0.1-0.7,0.2-1,0.2h-4.8c-0.3,0-0.7-0.1-1-0.2h-0.3
	c-0.3,0.1-0.7,0.2-1,0.2H778c-1.4,0-2.6-1.2-2.6-2.6v-6.9c0-0.8,0.3-1.5,0.9-2l0.1-0.1v-0.4l-0.1-0.1c-0.6-0.5-0.9-1.2-0.9-2v-6.9
	c0-1.4,1.2-2.6,2.6-2.6h13.4c0.3,0,0.7,0.1,1,0.2l0.2,0.1l0.2-0.1c0.3-0.1,0.7-0.2,1-0.2h13.8c1.4,0,2.6,1.2,2.6,2.6v6.9
	c0,0.8-0.3,1.5-0.9,2l-0.1,0.1v0.4l0.1,0.2c0.6,0.5,0.9,1.2,0.9,2v6.8c0,1.4-1.2,2.6-2.6,2.6H797z M796.6,434.6H808V427h-1.1v-3.9
	h1.1v-7.6h-14.5l-0.8,3.5l-0.8-3.5h-14v7.6h1.1v3.9h-1.1v7.6h10.4v-6.1l1.5,6.1h5.4l1.5-6L796.6,434.6z M796.8,427.8l0.9-3.5v3.5
	H796.8z M787.2,427.8v-3.6l0.9,3.5L787.2,427.8z"/>
<path class="st0" d="M819,437.2c-8.1,0-13.2-4.7-13.2-12.2s5-12.2,13.2-12.2s13.2,4.7,13.2,12.2S827.2,437.2,819,437.2z M819,415
	c-7,0-11,3.6-11,10s4,10,11,10s11-3.6,11-10S826,415,819,415z M819,426.8c-0.3,0-1,0-1-1.8s0.7-1.8,1-1.8s1,0,1,1.8
	S819.3,426.8,819,426.8z"/>
<path class="st0" d="M842.2,436.8c-0.3,0-0.7-0.1-1-0.2l-0.2-0.1l-0.2,0.1c-0.4,0.1-0.7,0.2-1.1,0.2h-9.6c-1.4,0-2.6-1.2-2.6-2.6
	l0,0v-6.9c0-0.8,0.3-1.5,0.9-2l0.2-0.1v-0.4l-0.2-0.1c-0.6-0.5-0.9-1.2-0.9-2v-6.9c0-1.4,1.2-2.6,2.6-2.6H843c0.3,0,0.6,0.1,0.9,0.2
	h0.3c0.3-0.1,0.6-0.2,0.9-0.2h8.5c1.4,0,2.6,1.2,2.6,2.6v6.9c0,0.8-0.3,1.5-0.9,2l-0.1,0.1v9.4c0,1.4-1.2,2.6-2.6,2.6H842.2z
	 M841.9,434.6h11.2v-11.5h1.1v-7.6h-9.3v5.4l-1.5-5.4h-13.6v7.6h1.1v3.9h-1.1v7.6h10.4v-6.1L841.9,434.6z M839.1,427.8v-3l0.9,3
	H839.1z"/>
<polygon class="st3" points="797.3,433.8 797.3,428.6 798.5,428.6 798.5,421.1 797.7,421.1 794.5,433.8 790.3,433.8 787.1,421.1
	786.3,421.1 786.3,428.6 787.3,428.6 787.3,433.8 778.5,433.8 778.5,427.7 779.6,427.7 779.6,422.3 778.5,422.3 778.5,416.2
	791.2,416.2 792.2,420.9 793,420.9 794.2,416.2 807.2,416.2 807.2,422.3 806,422.3 806,427.7 807.2,427.7 807.2,433.8 "/>
<path class="st3" d="M819,434.2c-6.6,0-10.2-3.3-10.2-9.2s3.6-9.2,10.2-9.2s10.2,3.3,10.2,9.2S825.6,434.2,819,434.2z M819,422.5
	c-1.2,0-1.7,0.9-1.7,2.6s0.6,2.5,1.7,2.5s1.8-0.9,1.8-2.5S820.2,422.5,819,422.5z"/>
<polygon class="st3" points="842.5,433.8 839.1,421.9 838.3,421.9 838.3,428.6 839.4,428.6 839.4,433.8 830.6,433.8 830.6,427.7
	831.7,427.7 831.7,422.3 830.6,422.3 830.6,416.2 842.8,416.2 844.9,423.8 845.7,423.8 845.7,416.2 853.4,416.2 853.4,422.3
	852.3,422.3 852.3,433.8 "/>
<polygon class="st1" points="17.7,342.5 17.7,309.5 0,309.5 0,247.2 112.6,247.2 112.6,309.5 94.8,309.5 94.8,342.5 "/>
<path class="st1" d="M140.7,344c-32.5,0-52.7-18.8-52.7-49.2s20.2-49.2,52.7-49.2s52.7,18.8,52.7,49.2S173.2,344,140.7,344z
	 M150,295.6h-18.6v-1.5H150"/>
<path class="st1" d="M251.8,344c-5.2,0.1-10.3-0.6-15.3-1.9v0.3h-67.9v-95.2h107.4v36.6l1.5-0.5v54.2l-8.5,3.7
	C264.6,343.1,259.1,344,251.8,344z"/>
<polygon class="st1" points="266.3,342.5 266.3,300.6 252.4,300.6 252.4,247.2 367.1,247.2 367.1,300.6 353.1,300.6 353.1,342.5 "/>
<path class="st1" d="M394.6,344c-32.5,0-52.7-18.8-52.7-49.2s20.2-49.2,52.7-49.2s52.7,18.8,52.7,49.2S427.2,344,394.6,344z
	 M385.3,295.6h18.6v-1.5h-18.6"/>
<polygon class="st4" points="21.2,339 21.2,306 3.5,306 3.5,250.8 108.9,250.8 108.9,306 91.2,306 91.2,339 "/>
<path class="st4" d="M140.7,340.5c-15,0-27-4-35.7-11.9s-13.5-19.7-13.5-33.8s4.8-25.7,13.6-33.7s20.7-11.9,35.7-11.9
	s27,4,35.7,11.9s13.5,19.7,13.5,33.8s-4.7,25.7-13.5,33.8C167.7,336.5,155.7,340.5,140.7,340.5z M146.5,296.2h-11.6v-2.7h11.6"/>
<path class="st4" d="M251.8,340.5c-7.4,0-13.6-1.1-18.9-3.4v1.9h-60.8v-88.2h100.2v37.9l1.5-0.5v47l-6.4,2.8
	C263.7,339.6,258.5,340.5,251.8,340.5z"/>
<polygon class="st4" points="269.8,339 269.8,299.1 267.9,297 256,297 256,250.8 363.5,250.8 363.5,297 351.5,297 349.6,299.1
	349.6,339 "/>
<path class="st4" d="M394.6,340.5c-15,0-27-4-35.7-11.9s-13.5-19.7-13.5-33.8s4.8-25.7,13.6-33.7s20.7-11.9,35.7-11.9
	s27,4,35.7,11.9s13.5,19.7,13.5,33.8s-4.7,25.7-13.5,33.8C421.6,336.5,409.6,340.5,394.6,340.5z M388.8,296.2v-2.7"/>
<polygon class="st1" points="28.7,331.4 28.7,300.1 37.3,300.1 37.3,298.5 11,298.5 11,258.3 101.4,258.3 101.4,298.5 75.2,298.5
	75.2,300.1 83.8,300.1 83.8,331.4 "/>
<path class="st1" d="M140.7,333c-26.5,0-41.6-13.9-41.6-38.1s15.2-38.1,41.7-38.1s41.7,13.9,41.7,38.1S167.2,333,140.7,333z
	 M140.7,290.1c-0.5,0-1.8,0-1.8,4.7s1.2,4.7,1.8,4.7s1.8,0,1.8-4.7S141.3,290.1,140.7,290.1z"/>
<path class="st1" d="M251.8,333c-12.6,0-20.5-3.3-26.3-11.4v9.9h-45.8v-31.4h3.9v-10.6h-3.9v-31.2h85.2v31.3h-6.7l-3.8,4.1l2.9,4.4
	c1.2,1.8,1.9,2.1,3.6,2.1c0.4,0,0.9,0,1.3-0.1l4.1-1.4v31.7l-1.9,0.8C261.7,332.4,257.4,333,251.8,333z"/>
<path class="st1" d="M277.3,331.5v-31.3h3.7l-9.9-10.6h-7.7v-31.3H356v31.3h-7.7l-9.8,10.6h3.7v31.3H277.3z"/>
<path class="st1" d="M394.6,333c-26.5,0-41.7-13.9-41.7-38.1s15.2-38.1,41.7-38.1s41.7,13.9,41.7,38.1S421.1,333,394.6,333z
	 M394.6,290.1c-0.5,0-1.8,0-1.8,4.7s1.2,4.7,1.8,4.7s1.8,0,1.8-4.7S395.2,290.1,394.6,290.1z"/>
<path class="st2" d="M31.9,303.3h8.6v-19.9h-3.9v11.9H14.2v-33.9h84.1v33.9H76v-11.9h-3.9v19.9h8.6v25H31.9V303.3z"/>
<path class="st2" d="M102.1,294.8c0-22.4,13.9-35,38.5-35s38.5,12.6,38.5,35s-13.9,35-38.5,35S102.1,317.2,102.1,294.8z
	 M145.7,294.8c0-5.3-1.6-7.9-4.9-7.9s-4.9,2.6-4.9,7.9s1.6,7.9,4.9,7.9S145.7,300.1,145.7,294.8z"/>
<path class="st2" d="M224.9,314.4l-6.1-12.3h-0.4v3.3c-0.1,4.7,1.3,9.3,3.9,13.2v9.6h-39.5v-25h3.9v-16.9h-3.9v-25h39.5v22h-3.9v8.5
	h0.4l7.5-8.5v-22h35.5v25h-4.9l-6.4,6.9l4.2,6.5c1.7,2.5,3.3,3.5,6.3,3.5c0.8,0,1.6-0.1,2.3-0.3v25.3c-2.5,1.1-6.6,1.6-11.4,1.6
	C237.4,329.8,230.3,325.4,224.9,314.4z"/>
<path class="st2" d="M280.5,303.3h7.4v-0.4l-15.3-16.5h-5.9v-25h41.4v20l5,9.6h0.4l5-9.6H312v-20h40.8v25H347l-15.3,16.5v0.4h7.4v25
	h-58.6V303.3z"/>
<path class="st2" d="M356.1,294.8c0-22.4,13.9-35,38.5-35s38.5,12.6,38.5,35s-13.9,35-38.5,35S356.1,317.2,356.1,294.8z
	 M399.6,294.8c0-5.3-1.6-7.9-4.9-7.9s-4.9,2.6-4.9,7.9s1.6,7.9,4.9,7.9S399.6,300.1,399.6,294.8z"/>
<path class="st0" d="M80,407.6c-21.8,0-26.3-8.9-26.3-16.3c-0.1-3.8,1.5-7.5,4.4-10l0.3-0.2l-0.2-0.3c-1.8-2.3-2.7-5-2.6-7.9
	c0-7,4.2-15.4,24.5-15.4c7.6,0,13.5,1.2,17.5,3.5c4.4,2.3,7.1,6.9,7,11.8c0.1,2.8-0.8,5.5-2.5,7.7l-0.2,0.3l0.3,0.2
	c2.9,2.6,4.5,6.3,4.3,10.2C106.3,398.7,101.8,407.6,80,407.6z M63.7,381.7c-4.6,1.8-6.8,4.9-6.8,9.6c0,8.7,7.8,13.1,23.1,13.1
	s23.1-4.4,23.1-13.1c0-4.7-2.2-7.9-6.6-10h-0.1v-0.4h0.1c3-1.5,4.9-4.6,4.8-8c0-8-7.2-12.1-21.3-12.1s-21.3,4.1-21.3,12.2
	c-0.2,3.5,1.8,6.8,4.9,8.4h0.1L63.7,381.7L63.7,381.7z"/>
<path class="st0" d="M81.4,377.8c-3-0.9-4.1-1.7-4.1-3.1s1-2,3-2s3.1,0.7,3.1,2C83.3,375.7,82.8,376.6,81.4,377.8L81.4,377.8z"/>
<path class="st0" d="M79.9,392.2c-2,0-3.1-0.7-3.1-2c0-1,0.5-1.8,1.8-3h0.1c3,0.9,4.1,1.7,4.1,3.1S81.9,392.2,79.9,392.2z"/>
<path class="st0" d="M115.3,407.6c-8.4,0-14.2-5.3-14.2-12.9s5.8-12.9,14.2-12.9s14.2,5.3,14.2,12.9S123.8,407.6,115.3,407.6z
	 M115.3,385c-6.6,0-11,3.9-11,9.7s4.4,9.7,11,9.7s11-3.9,11-9.7S121.9,385,115.3,385z"/>
<path class="st0" d="M148.7,407.6c-20.1,0-24.3-8.4-24.3-15.4c-0.1-3.4,1.2-6.7,3.7-9.2l0.3-0.3l-0.4-0.3c-0.8-0.6-1.3-1.5-1.3-2.5
	v-18.2c0-1.7,1.4-3.1,3.1-3.1h39.6c1.7,0,3.1,1.4,3.1,3.1v14.9c0,1.2-0.7,2.2-1.7,2.7l-1.7,0.9l0.5,0.4c3.1,2.6,4.8,6.5,4.6,10.6
	C174.1,397.2,170.8,407.6,148.7,407.6z M138.2,382.4c-6.6,0-10.6,3.6-10.6,9.8c0,8.1,7.1,12.2,21.1,12.2c14.7,0,22.2-4.5,22.2-13.4
	c0-5.5-2.9-9-8.6-10.6h-0.1V380l7-3.6v-14.7h-39.4v18H145v-2.5h9v0.4l-8.2,4.2l0.6,0.4c2.7,1.5,4.3,4.3,4.2,7.4c0,3.4-1.5,6-4.1,7.2
	h-0.1l-0.2-0.3l0.1-0.1c1.4-1.4,2.1-3.4,2-5.4C148.3,385.7,144.5,382.4,138.2,382.4L138.2,382.4z"/>
<path class="st0" d="M195.1,387.6c-1.9,0-2.7-1.5-2.7-5s0.8-5,2.7-5s2.6,1.5,2.6,5S197,387.6,195.1,387.6z"/>
<path class="st0" d="M195.1,407.6c-16.6,0-26.1-9.1-26.1-25s9.5-25,26.1-25s26.1,9.1,26.1,25S211.7,407.6,195.1,407.6z M195.1,360.8
	c-15,0-22.9,7.5-22.9,21.8s7.9,21.8,22.9,21.8s22.9-7.5,22.9-21.8S210.1,360.7,195.1,360.8L195.1,360.8z"/>
<path class="st1" d="M80,404.1c-15.2,0-22.8-4.3-22.8-12.8c0-4.5,2.2-7.6,6.6-9.3l0.2-0.1v-0.7l-0.2-0.1c-3.1-1.5-5-4.8-4.8-8.2
	c0-7.9,7.1-11.9,21-11.9s21,4,21,11.8c0.2,3.3-1.6,6.3-4.6,7.7l-0.2,0.1v0.8l0.2,0.1c4.3,2,6.4,5.1,6.4,9.7
	C102.8,399.8,95.2,404.1,80,404.1z M78.4,386.9c-1.4,1.3-1.9,2.1-1.9,3.2c0,1.5,1.1,2.3,3.3,2.3s3.3-0.8,3.3-2.2
	c0-1.8-1.7-2.6-4.3-3.4l-0.2-0.1L78.4,386.9z M80.2,372.5c-2.2,0-3.3,0.8-3.3,2.2c0,1.8,1.7,2.6,4.3,3.4l0.2,0.1l0.2-0.1
	c1.4-1.3,1.9-2.1,1.9-3.2C83.6,373.2,82.5,372.4,80.2,372.5L80.2,372.5z"/>
<path class="st1" d="M115.3,404.1c-6.4,0-10.7-3.8-10.7-9.4s4.3-9.4,10.7-9.4s10.7,3.8,10.7,9.4S121.8,404.1,115.3,404.1z"/>
<path class="st1" d="M148.7,404.1c-13.8,0-20.8-4-20.8-11.9c0-5.9,3.9-9.5,10.3-9.5c6.1,0,9.8,3.1,9.8,8.3c0.1,1.9-0.6,3.8-1.9,5.2
	l-0.2,0.2l0.5,0.7l0.3-0.1c2.8-1.2,4.3-3.9,4.3-7.5c0.1-3.2-1.6-6.3-4.5-7.8l7.9-4.1v-0.8h-9.6v2.5h-14.7v-17.4h38.8v14.3l-7,3.6
	v0.8l0.3,0.1c5.6,1.5,8.4,5,8.4,10.3C170.6,399.6,163,404.1,148.7,404.1z"/>
<path class="st1" d="M195.1,404.1c-14.8,0-22.6-7.5-22.6-21.5s7.8-21.5,22.6-21.5s22.6,7.5,22.6,21.5S209.9,404.1,195.1,404.1z
	 M195.1,377.3c-2.6,0-3,2.7-3,5.3s0.4,5.3,3,5.3s2.9-2.6,2.9-5.3S197.7,377.3,195.1,377.3z"/>
<path class="st0" d="M316.1,379.3c-1.3,0.1-2.5-0.8-2.6-2.1v-0.5c-0.1-1.4,0.9-2.6,2.3-2.7c0,0,0,0,0,0h0.5c1.9,0,3.5,1.3,3.8,3.1
	v0.1l0,0C319.2,378.5,317.7,379.3,316.1,379.3z"/>
<path class="st0" d="M311.7,407.6c-4.9,0.1-9.9-0.6-14.6-2c-1.4-0.4-2.3-1.7-2.2-3.2l1-14.2c0-0.5,0.2-1,0.5-1.4l0.2-0.3l-0.2-0.2
	c-2.7-2.9-4.2-6.7-4-10.7c0-11.3,8.9-18,23.8-18c17.5,0,27.5,8.8,27.5,24.1C343.6,398.2,332,407.6,311.7,407.6z M298.1,402.6
	l0.3,0.1c4.3,1.2,8.8,1.8,13.3,1.7c18.5,0,28.7-8.1,28.7-22.8c0-13.5-8.6-20.9-24.2-20.9c-13.1,0-20.6,5.4-20.6,14.8
	c0,7.7,4.9,12,13.8,12c4.6,0,8-1.2,10.5-3.7l0.1-0.1l0.3,0.2v0.1c-0.5,3.7-4.9,6-11.3,6c-3.1,0-6.3-0.5-9.3-1.3l-0.5-0.1
	L298.1,402.6z"/>
<path class="st0" d="M352.8,407.6c-8.4,0-14.2-5.3-14.2-12.9s5.8-12.9,14.2-12.9s14.2,5.3,14.2,12.9S361.2,407.6,352.8,407.6z
	 M352.8,385c-6.6,0-11,3.9-11,9.7s4.4,9.7,11,9.7s11-3.9,11-9.7S359.4,385,352.8,385z"/>
<path class="st0" d="M366.4,406.6c-1.7,0-3.1-1.4-3.1-3.1l0,0v-15.7c0-1.3,0.9-2.5,2.1-3l0.3-0.1v-4.4h-0.3
	c-1.5-0.2-2.7-1.5-2.7-3.1v-12.3c0-1.6,1.2-2.9,2.7-3.1c2.7-0.3,5.2-1.2,7.4-2.8c0.5-0.4,1.2-0.6,1.8-0.6h13.6
	c1.7,0,3.1,1.4,3.1,3.1v23.2l0.3,0.1c1.3,0.4,2.2,1.6,2.1,3v15.6c0,1.7-1.4,3.1-3.1,3.1h-24.2V406.6z M366.5,403.4h24V388h-2.4
	v-26.3h-13.4l-0.1,0.1c-2.5,1.7-5.3,2.8-8.3,3.2H366v12.2h3V388h-2.4v15.4L366.5,403.4z"/>
<path class="st1" d="M311.7,404.1c-4.5,0.1-9-0.5-13.3-1.7l1-13.5c3.1,0.9,6.3,1.4,9.5,1.4c6.6,0,11.1-2.4,11.6-6.3v-0.2l-0.7-0.4
	l-0.2,0.2c-2.4,2.5-5.7,3.6-10.2,3.6c-8.6,0-13.5-4.3-13.5-11.7c0-9.2,7.4-14.5,20.3-14.5c15.5,0,24,7.3,24,20.6
	C340.1,396.1,330,404.1,311.7,404.1z M316.3,373.8c-1.5-0.2-2.9,0.9-3.1,2.5c0,0,0,0,0,0v0.5c-0.1,1.4,1,2.7,2.4,2.9h0.5
	c1.7,0,3.2-0.8,4.2-2.2l0.1-0.2v-0.2C320.1,375.1,318.4,373.6,316.3,373.8L316.3,373.8z"/>
<path class="st1" d="M352.8,404.1c-6.4,0-10.7-3.8-10.7-9.4s4.3-9.4,10.7-9.4s10.7,3.8,10.7,9.4S359.2,404.1,352.8,404.1z"/>
<path class="st1" d="M366.8,403.1v-14.9h2.4v-11.4h-3v-11.6c3.1-0.4,6-1.5,8.5-3.3h13v26.2h2.5V403L366.8,403.1L366.8,403.1z"/>
<path class="st0" d="M323.9,437.2c-1.4,0-2.9-0.2-4.2-0.8l-0.2-0.1l-0.2,0.1c-0.4,0.2-0.8,0.3-1.2,0.3h-8.4c-1.4,0-2.6-1.2-2.6-2.6
	l0,0v-7.8c0-0.5,0.2-1.1,0.5-1.5l0.1-0.2l-0.1-0.2c-0.6-1.1-0.8-2.4-0.8-3.6c0-4.8,3.6-8.1,8.9-8.1c1.3,0,2.7,0.2,3.9,0.7l0.2,0.1
	l0.2-0.1c0.4-0.2,0.8-0.3,1.2-0.3h8.4c1.4,0,2.6,1.2,2.6,2.6v7.2c0,0.4-0.1,0.8-0.3,1.2l-0.1,0.2l0.1,0.2c0.8,1.3,1.2,2.9,1.2,4.4
	C333,434,329.4,437.2,323.9,437.2z M318.6,433.4c1.5,1.1,3.4,1.7,5.3,1.7c4.4,0,7-2.3,7-6.1s-2.6-5.8-9.2-6.8c0.3-0.1,0.7-0.1,1,0
	c1.8,0,3.6,0.4,5.2,1.2h2.1v-7.9h-9.2l-0.2,1.2c-1.4-1.1-3.1-1.7-4.9-1.6c-4,0-6.7,2.3-6.7,5.9s2.9,5.8,9.1,6.7h-0.8
	c-2.1,0-4.1-0.5-5.9-1.5h-2.1v8.6h9.2L318.6,433.4z"/>
<path class="st0" d="M341.2,437.2c-6.1,0-12.2-1.2-12.2-10.1v-2.3l-0.1-0.1c-0.6-0.5-0.9-1.2-0.9-2v-6.9c0-1.4,1.2-2.6,2.6-2.6h21.5
	c1.4,0,2.6,1.2,2.6,2.6v6.9c0,0.8-0.3,1.5-0.9,2l-0.1,0.1v2.4C353.5,436.1,347.4,437.2,341.2,437.2z M331.2,427.2
	c0,5.7,2.7,7.9,10,7.9s10-2.1,10-7.9v-4.1h1.1v-7.6h-11.3v7.6h1.1v2.9c0,0.8-0.3,0.8-0.7,0.8s-0.7,0-0.7-0.8v-10.5h-10.6v7.6h1.1
	V427.2z"/>
<path class="st0" d="M365.1,436.8c-0.3,0-0.7-0.1-1-0.2l-0.2-0.1l-0.2,0.1c-0.4,0.1-0.7,0.2-1.1,0.2H353c-1.4,0-2.6-1.2-2.6-2.6
	v-6.9c0-0.8,0.3-1.5,0.9-2l0.1-0.1v-0.4l-0.1-0.1c-0.6-0.5-0.9-1.2-0.9-2v-6.9c0-1.4,1.2-2.6,2.6-2.6h12.9c0.3,0,0.6,0.1,0.9,0.2
	h0.2c0.3-0.1,0.6-0.2,0.9-0.2h8.5c1.4,0,2.6,1.2,2.6,2.6v6.9c0,0.8-0.3,1.5-0.9,2l-0.1,0.1v9.4c0,1.4-1.2,2.6-2.6,2.6H365.1z
	 M364.8,434.6H376v-11.5h1.1v-7.6h-9.3v5.4l-1.5-5.4h-13.6v7.6h1.1v3.9h-1.1v7.6h10.4v-6.1L364.8,434.6z M362,427.8v-3l0.9,3H362z"
	/>
<path class="st3" d="M323.9,434.2c-1.9,0-3.7-0.6-5.2-1.8l-0.1-0.1H318l-0.2,1.5h-7.7v-7h1c1.9,1,4,1.6,6.2,1.6
	c1,0.1,1.9-0.2,2.8-0.6l0.2-0.1V427h-0.4c-7.1-0.6-10.2-2.5-10.2-6.1c0-3.1,2.2-5.1,5.9-5.1c1.8,0,3.5,0.6,4.9,1.8l0.1,0.1h0.6
	l0.2-1.5h7.7v6.4h-1c-1.7-0.9-3.6-1.3-5.5-1.3c-1,0-2,0.2-2.9,0.5l-0.2,0.1v0.7h0.4c7.5,0.8,10.3,2.5,10.3,6.2
	C330,432.3,327.8,434.2,323.9,434.2z"/>
<path class="st3" d="M341.2,434.2c-6.9,0-9.2-1.8-9.2-7.1v-4.9h-1.1v-6h9v9.7c0,1.1,0.5,1.6,1.5,1.6s1.5-0.5,1.5-1.6v-3.7h-1.1v-6
	h9.8v6.1h-1.1v4.9C350.5,432.5,348.2,434.2,341.2,434.2z"/>
<polygon class="st3" points="365.4,433.8 362,421.9 361.2,421.9 361.2,428.6 362.3,428.6 362.3,433.8 353.5,433.8 353.5,427.7
	354.6,427.7 354.6,422.3 353.5,422.3 353.5,416.2 365.7,416.2 367.8,423.8 368.6,423.8 368.6,416.2 376.3,416.2 376.3,422.3
	375.2,422.3 375.2,433.8 "/>
<path class="st0" d="M110.6,436.8c-1.4,0-2.6-1.2-2.6-2.6v-6.9c0-0.8,0.3-1.5,0.9-2l0.1-0.2v-0.4l-0.2-0.1c-0.6-0.5-0.9-1.2-0.9-2
	v-6.9c0-1.4,1.2-2.6,2.6-2.6h19.6c1.4,0,2.6,1.2,2.6,2.6v7.2c0,1.4-1.2,2.6-2.6,2.6h-0.6v1.6c0,1.4-1.2,2.6-2.6,2.6h-1.6v4.4
	c0,1.4-1.2,2.6-2.6,2.6L110.6,436.8z M110.2,434.6h12.9v-6.8h-2.3v-0.1h6.5v-4.1h-6.5v-1.3h0.8v1.1h9v-8h-20.4v7.6h1.1v3.9h-1.1
	V434.6z"/>
<path class="st0" d="M149.5,437.2c-1.9,0.1-3.7-0.3-5.4-1l-0.2-0.1l-0.2,0.2c-0.5,0.4-1.1,0.6-1.7,0.6h-10.9c-1.4,0-2.6-1.2-2.6-2.6
	v-6.9c0-0.8,0.3-1.5,0.9-2l0.1-0.1v-0.4l-0.1-0.1c-0.6-0.5-0.9-1.2-0.9-2v-6.9c0-1.4,1.1-2.6,2.5-2.7h13.5c7,0,10.5,2.7,10.5,8
	c0,1.3-0.3,2.6-0.8,3.8v0.2l0.2,0.2c0.5,0.5,0.8,1.1,0.8,1.8v7c0,1.1-0.6,2-1.6,2.4C152.3,437.1,150.9,437.3,149.5,437.2z
	 M142,430.6c1.4,3.2,3.5,4.5,7.4,4.5c1.1,0,2.1-0.1,3.1-0.5l0.2-0.1v-7.8l-0.5,0.2c-0.1,0-0.3,0.1-0.4,0.1c-0.6,0-1.1-0.3-1.3-0.8
	l-0.2-0.3c1.7-0.8,2.5-2.3,2.5-4.6c0-4-2.5-5.8-8.3-5.8h-13.8v7.6h1.1v3.9h-1.1v7.6h11.6V432l-0.1-0.1c-0.6-0.8-0.9-1.8-1-2.8
	L142,430.6z M141.9,423.4c-0.2,0-0.4,0-0.6-0.1v-1.6h0.4c0.9,0,1,0.4,1,0.9S142.7,423.4,141.9,423.4L141.9,423.4z"/>
<path class="st0" d="M153.5,436.8c-1.4,0-2.6-1.2-2.6-2.6v-6.9c0-0.8,0.3-1.5,0.9-2l0.1-0.1v-0.4l-0.1-0.1c-0.6-0.5-0.9-1.2-0.9-2
	v-6.9c0-1.4,1.2-2.6,2.6-2.6h10.9c1.4,0,2.6,1.2,2.6,2.6v6.9c0,0.8-0.3,1.5-0.9,2l-0.1,0.1v0.4l0.1,0.2c0.6,0.5,0.9,1.2,0.9,2v6.8
	c0,1.4-1.2,2.6-2.6,2.6H153.5z M153.1,434.6h11.6V427h-1.1v-3.9h1.1v-7.6h-11.6v7.6h1.1v3.9h-1.1V434.6z"/>
<polygon class="st1" points="110.9,433.8 110.9,427.7 112.1,427.7 112.1,422.3 110.9,422.3 110.9,416.2 129.8,416.2 129.8,422.6
	122.3,422.6 122.3,421.5 119.9,421.5 119.9,424.3 126.6,424.3 126.6,426.8 119.9,426.8 119.9,428.6 122.3,428.6 122.3,433.8 "/>
<path class="st1" d="M149.5,434.2c-3.6,0-5.4-1-6.7-4l-1.5-3.2h-0.8v1.5c0,1.3,0.4,2.6,1.1,3.7v1.6h-10.1v-6.1h1.1v-5.4h-1.1v-6.1
	h13c5.3,0,7.5,1.4,7.5,5c0,2.1-0.8,3.4-2.4,4.1l-0.4,0.2l0.7,1.1c0.4,0.7,1.2,1.2,2,1.1h0.2v6.2
	C151.2,434.2,150.3,434.3,149.5,434.2z M140.5,423.8l0.2,0.1c0.3,0.2,0.7,0.2,1.1,0.2c0.8,0.1,1.6-0.5,1.7-1.3v-0.3
	c0-0.9-0.7-1.6-1.6-1.6c-0.1,0-0.2,0-0.2,0h-1.2V423.8z"/>
<polygon class="st1" points="153.9,433.8 153.9,427.7 155,427.7 155,422.3 153.9,422.3 153.9,416.2 164,416.2 164,422.3
	162.9,422.3 162.9,427.7 164,427.7 164,433.8 "/>
<path class="st5" d="M453,154l3.1-12.6h-7.9l-2.3,3.9H440l1.8-8.2v-0.4l-1.8-8.2h5.9l2.3,3.9h7.9l-3.1-12.6h6.5l6.2,12.6h5.6
	c1.7,0,3.3,0.6,4.6,1.6l0.9,0.7c0.7,0.5,1.1,1.3,1.1,2.2v0.1c0,0.9-0.4,1.7-1.1,2.2l-0.9,0.7c-1.3,1-2.9,1.6-4.5,1.6h-5.6l-6.2,12.6
	L453,154z"/>
<path class="st1" d="M459.6,154.8L459.6,154.8l-6.6-0.1c-0.2,0-0.4-0.1-0.6-0.3c-0.1-0.2-0.2-0.4-0.1-0.6l2.9-11.7h-6.5l-2.1,3.5
	c-0.1,0.2-0.4,0.4-0.6,0.4H440c-0.2,0-0.4-0.1-0.6-0.3c-0.1-0.2-0.2-0.4-0.1-0.6l1.7-8.1v-0.2l-1.8-8.1c0-0.2,0-0.5,0.1-0.6
	c0.1-0.2,0.4-0.3,0.6-0.3h5.9c0.3,0,0.5,0.1,0.6,0.4l2.1,3.5h6.5l-2.9-11.7c-0.1-0.2,0-0.5,0.1-0.6c0.1-0.2,0.4-0.3,0.6-0.3h6.5
	c0.3,0,0.5,0.2,0.7,0.4l6,12.2h5.1c1.8,0,3.6,0.6,5.1,1.8l0.9,0.7c0.9,0.6,1.4,1.7,1.4,2.8v0.1c0,1.1-0.5,2.2-1.4,2.8l-0.9,0.7
	c-1.4,1.1-3.2,1.7-5,1.8h-5.1l-6,12.2C460.1,154.6,459.9,154.8,459.6,154.8z M454,153.2l5.2,0.1l6-12.2c0.1-0.3,0.4-0.4,0.7-0.4h5.6
	c1.5,0,2.9-0.5,4-1.4l0.9-0.7c0.5-0.4,0.8-1,0.8-1.6v-0.1c0-0.6-0.3-1.2-0.8-1.6l-0.9-0.7c-1.2-0.9-2.6-1.4-4.1-1.4h-5.6
	c-0.3,0-0.5-0.2-0.7-0.4l-6-12.2h-5l2.9,11.7c0.1,0.2,0,0.5-0.1,0.6c-0.1,0.2-0.4,0.3-0.6,0.3h-7.9c-0.3,0-0.5-0.1-0.6-0.4l-2.1-3.5
	H441l1.6,7.3c0,0.1,0,0.1,0,0.2v0.4c0,0.1,0,0.1,0,0.2l-1.6,7.3h4.5l2.1-3.5c0.1-0.2,0.4-0.4,0.6-0.4h7.9c0.2,0,0.4,0.1,0.6,0.3
	c0.1,0.2,0.2,0.4,0.1,0.6L454,153.2z"/>
<path class="st3" d="M686.3,399.7l3.1-12.6h-7.9l-2.3,3.9h-5.9l1.8-8.2v-0.4l-1.8-8.2h5.9l2.3,3.9h7.9l-3.1-12.6h6.5l6.2,12.6h5.6
	c1.7,0,3.3,0.6,4.6,1.6l0.8,0.7c0.7,0.5,1.1,1.3,1.1,2.2v0.1c0,0.9-0.4,1.7-1.1,2.2l-0.9,0.7c-1.3,1-2.9,1.6-4.5,1.6H699l-6.2,12.6
	L686.3,399.7z"/>
<path class="st1" d="M692.8,400.5L692.8,400.5l-6.5-0.1c-0.2,0-0.4-0.1-0.6-0.3c-0.1-0.2-0.2-0.4-0.1-0.6l2.9-11.7h-6.5l-2.1,3.5
	c-0.1,0.2-0.4,0.4-0.6,0.4h-5.9c-0.2,0-0.4-0.1-0.6-0.3c-0.1-0.2-0.2-0.4-0.2-0.6l1.8-8.1v-0.2l-1.8-8.1c-0.1-0.4,0.2-0.8,0.6-0.9
	c0,0,0.1,0,0.1,0h5.9c0.3,0,0.5,0.1,0.6,0.4l2.1,3.5h6.5l-2.9-11.7c-0.1-0.2,0-0.5,0.1-0.6c0.1-0.2,0.4-0.3,0.6-0.3h6.5
	c0.3,0,0.6,0.2,0.7,0.4l6,12.2h5.1c1.8,0,3.6,0.6,5.1,1.8l0.8,0.7c0.9,0.6,1.4,1.7,1.4,2.8v0.1c0,1.1-0.5,2.2-1.4,2.8l-0.9,0.7
	c-1.4,1.1-3.2,1.7-5,1.8h-5.1l-6,12.2C693.3,400.4,693.1,400.5,692.8,400.5z M687.2,398.9l5.1,0.1l6-12.2c0.1-0.3,0.4-0.4,0.7-0.4
	h5.6c1.5,0,2.9-0.5,4-1.5l0.9-0.7c0.5-0.4,0.8-1,0.8-1.6v-0.1c0-0.6-0.3-1.2-0.8-1.6l-0.8-0.8c-1.2-0.9-2.6-1.4-4.1-1.4H699
	c-0.3,0-0.5-0.2-0.7-0.4l-6-12.2h-5.1l2.9,11.7c0.1,0.2,0,0.5-0.1,0.6c-0.1,0.2-0.4,0.3-0.6,0.3h-7.9c-0.3,0-0.5-0.1-0.7-0.4
	l-2.1-3.5h-4.5l1.6,7.3c0,0.1,0,0.1,0,0.2v0.4c0,0.1,0,0.1,0,0.2l-1.6,7.3h4.5l2.1-3.5c0.1-0.2,0.4-0.4,0.7-0.4h7.9
	c0.2,0,0.5,0.1,0.6,0.3c0.1,0.2,0.2,0.4,0.1,0.6L687.2,398.9z"/>
<path class="st2" d="M250.7,399.7l3.1-12.6h-7.9l-2.3,3.9h-5.9l1.8-8.2v-0.4l-1.8-8.2h5.9l2.3,3.9h7.9l-3.1-12.6h6.5l6.2,12.6h5.6
	c1.7,0,3.3,0.6,4.6,1.6l0.9,0.7c0.7,0.5,1.1,1.3,1.1,2.2v0.1c0,0.9-0.4,1.7-1.1,2.2l-0.9,0.7c-1.3,1-2.9,1.6-4.6,1.6h-5.6l-6.2,12.6
	L250.7,399.7z"/>
<path class="st1" d="M257.2,400.5L257.2,400.5l-6.5-0.1c-0.2,0-0.4-0.1-0.6-0.3c-0.1-0.2-0.2-0.4-0.1-0.6l2.9-11.7h-6.5l-2.1,3.5
	c-0.1,0.2-0.4,0.4-0.6,0.4h-5.9c-0.2,0-0.4-0.1-0.6-0.3c-0.1-0.2-0.2-0.4-0.1-0.6l1.8-8.1v-0.2l-1.8-8.1c-0.1-0.4,0.2-0.8,0.6-0.9
	c0,0,0.1,0,0.1,0h5.9c0.3,0,0.5,0.1,0.6,0.4l2.1,3.5h6.5l-2.9-11.7c-0.1-0.2,0-0.5,0.1-0.6c0.1-0.2,0.4-0.3,0.6-0.3h6.5
	c0.3,0,0.6,0.2,0.7,0.4l6,12.2h5.1c1.8,0,3.6,0.6,5.1,1.8l0.9,0.7c0.9,0.7,1.4,1.7,1.4,2.8v0.1c0,1.1-0.5,2.2-1.4,2.8l-0.9,0.7
	c-1.4,1.1-3.2,1.8-5.1,1.8h-5.1l-6,12.2C257.7,400.4,257.5,400.5,257.2,400.5z M251.7,398.9l5.1,0.1l6-12.2c0.1-0.3,0.4-0.4,0.7-0.4
	h5.6c1.5,0,3-0.5,4.1-1.5l0.9-0.7c0.5-0.4,0.8-1,0.8-1.6v-0.1c0-0.6-0.3-1.2-0.8-1.6l-0.9-0.7c-1.2-0.9-2.6-1.4-4.1-1.4h-5.6
	c-0.3,0-0.5-0.2-0.7-0.4l-6-12.2h-5.1l2.9,11.7c0.1,0.2,0,0.5-0.1,0.6c-0.1,0.2-0.4,0.3-0.6,0.3h-7.9c-0.3,0-0.5-0.1-0.6-0.4
	l-2.1-3.5h-4.5l1.6,7.3c0,0.1,0,0.1,0,0.2v0.4c0,0.1,0,0.1,0,0.2l-1.6,7.3h4.5l2.1-3.5c0.1-0.2,0.4-0.4,0.6-0.4h7.9
	c0.2,0,0.5,0.1,0.6,0.3c0.1,0.2,0.2,0.4,0.1,0.6L251.7,398.9z"/>
</svg>