<svg version="1.1" xmlns="http://www.w3.org/2000/svg" xmlns:xlink="http://www.w3.org/1999/xlink" x="0px" y="0px" viewBox="0 0 185.6 282.5" style="enable-background:new 0 0 185.6 282.5;" xml:space="preserve" width="186" height="283">
<style type="text/css">
	.st0{fill:#C4987A;}
	.st1{fill:#38C2C9;}
	.st2{fill:#FFFFFF;}
	.st3{fill:#FF93B6;}
</style>
<path class="st0" d="M7.2,0h6c2.8,0,5,2.2,5,5v272.5c0,2.8-2.2,5-5,5h-6c-2.8,0-5-2.2-5-5V5C2.2,2.2,4.4,0,7.2,0z"/>
<rect y="9.6" class="st1" width="185.6" height="152.7"/>
<path class="st2" d="M71.7,71.1H61.6V49.5h-7.4V41h24.9v8.5h-7.4V71.1z"/>
<path class="st2" d="M83,55.8c0-2.2,0.4-4.5,1.3-6.5c0.8-1.9,2-3.6,3.5-5c1.5-1.4,3.3-2.5,5.3-3.2c4.3-1.5,9-1.5,13.3,0
	c2,0.7,3.8,1.8,5.3,3.2c1.5,1.4,2.7,3.1,3.5,5c0.9,2.1,1.3,4.3,1.3,6.5c0,2.3-0.4,4.5-1.3,6.6c-0.8,1.9-2,3.7-3.5,5.1
	c-1.5,1.4-3.3,2.5-5.3,3.2c-4.3,1.5-9,1.5-13.3,0c-2-0.7-3.8-1.8-5.3-3.2c-1.5-1.4-2.7-3.2-3.5-5.1C83.4,60.3,83,58.1,83,55.8z
	 M93.8,55.8c0,0.9,0.1,1.8,0.4,2.7c0.3,0.8,0.7,1.5,1.2,2.1c0.5,0.6,1.2,1.1,1.9,1.4c0.7,0.3,1.6,0.5,2.4,0.5c0.8,0,1.6-0.2,2.4-0.5
	c0.7-0.3,1.4-0.8,1.9-1.4c0.6-0.6,1-1.3,1.3-2.1c0.3-0.9,0.5-1.8,0.4-2.7c0-0.9-0.1-1.8-0.4-2.7c-0.3-0.7-0.7-1.4-1.3-2
	c-1.1-1.1-2.7-1.8-4.2-1.8c-0.8,0-1.6,0.2-2.4,0.5c-0.7,0.3-1.4,0.7-1.9,1.3c-0.5,0.6-1,1.3-1.2,2C93.9,54,93.7,54.9,93.8,55.8
	L93.8,55.8z"/>
<path class="st2" d="M132.9,61.4v9.7h-10.1V41h12.9c1.5,0,3,0.2,4.5,0.5c1.4,0.3,2.8,0.9,4,1.7c1.2,0.8,2.1,1.9,2.8,3.1
	c0.8,1.5,1.1,3.2,1.1,4.9c0,1.6-0.4,3.3-1.1,4.7c-0.6,1.3-1.6,2.3-2.7,3.2c-1.2,0.8-2.6,1.5-4,1.8c-1.5,0.4-3,0.6-4.6,0.5
	L132.9,61.4z M132.9,48.8v4.8h2.1c0.7,0,1.5-0.2,2.1-0.6c0.7-0.4,1.1-1.2,1-1.9c0-0.4-0.1-0.8-0.2-1.2c-0.2-0.3-0.4-0.5-0.7-0.7
	c-0.3-0.2-0.6-0.3-1-0.4c-0.4-0.1-0.7-0.1-1.1-0.1L132.9,48.8z"/>
<path class="st2" d="M169.5,24.7c0.6,0,1,0.4,1,1v120.4c0,0.6-0.4,1-1,1H29c-0.6,0-1-0.4-1-1V25.7c0-0.6,0.4-1,1-1H169.5
	 M169.5,20.7H29c-2.8,0-5,2.2-5,5v120.4c0,2.8,2.2,5,5,5h140.5c2.8,0,5-2.2,5-5V25.7C174.5,23,172.2,20.7,169.5,20.7z"/>
<polygon class="st3" points="142.5,123.9 99.2,83.4 55.9,123.9 74.7,123.9 74.7,149.1 123.8,149.1 123.8,123.9 "/>
<path class="st2" d="M123.7,151.1h-49c-1.1,0-2-0.9-2-2v-23.2H55.9c-1.1,0-2-0.9-2-2c0-0.6,0.2-1.1,0.6-1.5L97.9,82
	c0.8-0.7,2-0.7,2.7,0l43.3,40.5c0.6,0.6,0.8,1.4,0.5,2.2c-0.3,0.8-1,1.3-1.9,1.3h-16.8v23.2C125.7,150.3,124.8,151.1,123.7,151.1z
	 M76.7,147.1h45v-23.2c0-1.1,0.9-2,2-2h13.7L99.2,86.2L61,121.9h13.7c1.1,0,2,0.9,2,2L76.7,147.1z"/>
</svg>
