<svg version="1.1" xmlns="http://www.w3.org/2000/svg" xmlns:xlink="http://www.w3.org/1999/xlink" x="0px" y="0px" viewBox="0 0 289.5 68.2" style="enable-background:new 0 0 289.5 68.2;" xml:space="preserve" width="290" height="69">
<style type="text/css">
	.st0{fill:#2D82CC;}
	.st1{fill:#FFFFFF;}
</style>
<path class="st0" d="M66.7,5L46.2,61.6H25.1L5,5h21.5l9.4,35h0.3l9-35H66.7 M66.7,0H45.2c-2.3,0-4.3,1.5-4.8,3.8l-4.4,17.1L31.4,3.7
	C30.8,1.5,28.8,0,26.5,0H5C2.2,0,0,2.2,0,5c0,0.6,0.1,1.1,0.3,1.7l20.1,56.6c0.7,2,2.6,3.3,4.7,3.3h21.1c2.1,0,4-1.3,4.7-3.3
	L71.4,6.7c0.9-2.6-0.4-5.5-3-6.4C67.8,0.1,67.3,0,66.7,0z"/>
<path class="st0" d="M109.6,5v15.8h-21v4.9h19.8v14.8H88.6v5.3H111v15.8H70.7V5H109.6 M109.7,0h-39c-2.8,0-5,2.2-5,5v56.6
	c0,2.8,2.2,5,5,5H111c2.8,0,5-2.2,5-5V45.8c0-1.9-1-3.6-2.7-4.4c0-0.3,0.1-0.6,0.1-0.8V25.7c0-0.5-0.1-0.9-0.2-1.3
	c0.9-0.9,1.5-2.2,1.5-3.5V5C114.6,2.2,112.4,0,109.7,0L109.7,0z"/>
<path class="st0" d="M171.6,5v56.6h-19.4l-15.7-27h-0.3l0.8,27h-18.1V5h19L154,33.7h0.3L153.6,5H171.6 M171.6,0h-18.1
	c-2.8,0-5,2.2-5,5c0,0,0,0.1,0,0.1l0.3,9.1l-6.6-11.7C141.4,1,139.7,0,137.9,0h-19c-2.8,0-5,2.2-5,5v56.6c0,2.8,2.2,5,5,5H137
	c2.8,0,5-2.2,5-5c0-0.1,0-0.1,0-0.2l-0.2-7.9l6.1,10.5c0.9,1.5,2.5,2.5,4.3,2.5h19.4c2.8,0,5-2.2,5-5V5C176.6,2.2,174.4,0,171.6,0z"
	/>
<path class="st0" d="M234.4,5v34.4c0,3.2-0.6,6.4-1.7,9.4c-1.1,2.9-2.9,5.4-5.1,7.6c-2.4,2.2-5.3,3.9-8.4,5
	c-3.7,1.3-7.7,1.9-11.6,1.8c-3.9,0.1-7.8-0.5-11.6-1.8c-3.1-1.1-5.8-2.8-8.2-5c-2.2-2.1-3.9-4.7-4.9-7.6c-1.1-3-1.6-6.2-1.6-9.4V5
	h19v32.3c-0.1,2.3,0.6,4.6,2,6.4c3.1,3,8,3,11.1,0c1.4-1.8,2.1-4.1,2-6.4V5H234.4 M234.5,0h-19c-2.8,0-5,2.2-5,5v32.3
	c0.1,1.1-0.2,2.2-0.8,3.1c-0.1,0.2-0.5,0.5-1.8,0.5s-1.6-0.4-1.8-0.5c-0.6-0.9-0.8-2-0.8-3.1V5c0-2.8-2.2-5-5-5h-19
	c-2.8,0-5,2.2-5,5v34.4c0,3.8,0.6,7.6,1.9,11.1c1.3,3.6,3.4,6.8,6.1,9.4c2.8,2.7,6.2,4.8,9.9,6.1c4.3,1.5,8.8,2.2,13.3,2.2
	c4.5,0.1,9-0.7,13.3-2.2c3.7-1.3,7.2-3.4,10.1-6.1c2.8-2.6,4.9-5.8,6.3-9.3c1.4-3.6,2.1-7.4,2.1-11.2V5C239.4,2.2,237.2,0,234.5,0
	L234.5,0z"/>
<path class="st0" d="M283.2,5v15.8h-21v4.9h19.8v14.8h-19.8v5.3h22.4v15.8h-40.3V5H283.2 M283.2,0h-39c-2.8,0-5,2.2-5,5v56.6
	c0,2.8,2.2,5,5,5h40.3c2.8,0,5-2.2,5-5V45.8c0-1.9-1-3.6-2.7-4.4c0-0.3,0.1-0.6,0.1-0.8V25.7c0-0.5-0.1-0.9-0.2-1.3
	c0.9-0.9,1.5-2.2,1.5-3.5V5C288.2,2.2,285.9,0,283.2,0L283.2,0z"/>
<path class="st1" d="M5,5h21.5l9.4,35h0.3l9-35h21.5L46.2,61.6H25.1L5,5z"/>
<path class="st1" d="M70.7,5h39v15.8h-21v4.9h19.8v14.8H88.6v5.3H111v15.8H70.7V5z"/>
<path class="st1" d="M118.9,5h19L154,33.7h0.3L153.6,5h18.1v56.6h-19.4l-15.7-27h-0.3l0.8,27h-18.1V5z"/>
<path class="st1" d="M207.6,63.2c-3.9,0.1-7.8-0.5-11.6-1.8c-3.1-1.1-5.8-2.8-8.2-5c-2.2-2.1-3.9-4.7-4.9-7.6
	c-1.1-3-1.6-6.2-1.6-9.4V5h19v32.3c-0.1,2.3,0.6,4.6,2,6.4c3.1,3,8,3,11.1,0c1.4-1.8,2.1-4.1,2-6.4V5h19v34.4c0,3.2-0.6,6.4-1.7,9.4
	c-1.1,2.9-2.9,5.4-5.1,7.6c-2.4,2.2-5.3,3.9-8.4,5C215.6,62.7,211.6,63.3,207.6,63.2z"/>
<path class="st1" d="M244.2,5h39v15.8h-21v4.9H282v14.8h-19.8v5.3h22.4v15.8h-40.3V5z"/>
</svg>
