<svg xmlns="http://www.w3.org/2000/svg" viewBox="0 0 340.72 69.84"><defs><style>.cls-1{fill:#2d82cc;}.cls-2{fill:#fff;}</style></defs><g id="レイヤー_2" data-name="レイヤー 2"><g id="セクションタイトル"><path class="cls-1" d="M29.32,6.6a39.34,39.34,0,0,1,8.48.92,21.51,21.51,0,0,1,7.44,3.12,16.36,16.36,0,0,1,5.28,5.84,18.9,18.9,0,0,1,2,9.16,18.8,18.8,0,0,1-2,9,17.29,17.29,0,0,1-5.2,6A21.4,21.4,0,0,1,37.92,44a35.83,35.83,0,0,1-8.6,1H24V63.24H5V6.6H29.32M24,30.52h4a7.55,7.55,0,0,0,4-1.08,3.9,3.9,0,0,0,1.8-3.64,4.4,4.4,0,0,0-.48-2.2,3.49,3.49,0,0,0-1.32-1.32A6,6,0,0,0,30,21.6,11.27,11.27,0,0,0,28,21.4H24v9.12M29.32,1.6H5a5,5,0,0,0-5,5V63.24a5,5,0,0,0,5,5H24a5,5,0,0,0,5-5V50h.36a40.64,40.64,0,0,0,9.8-1.19,26.25,26.25,0,0,0,9.15-4.15A22,22,0,0,0,55,37a23.84,23.84,0,0,0,2.55-11.31A23.83,23.83,0,0,0,54.9,14.07,21.45,21.45,0,0,0,48,6.49a26.59,26.59,0,0,0-9.15-3.85,44.37,44.37,0,0,0-9.56-1Z"/><path class="cls-1" d="M78.92,6.6V63.24H59.72V6.6h19.2m0-5H59.72a5,5,0,0,0-5,5V63.24a5,5,0,0,0,5,5h19.2a5,5,0,0,0,5-5V6.6a5,5,0,0,0-5-5Z"/><path class="cls-1" d="M117.72,5a36.14,36.14,0,0,1,12.4,2.12,28.65,28.65,0,0,1,9.76,5.72L128.2,26.92a10.3,10.3,0,0,0-4-3.16,12.93,12.93,0,0,0-5.36-1.08,11.86,11.86,0,0,0-4.48.84A10.47,10.47,0,0,0,110.72,26a11.25,11.25,0,0,0-2.44,3.88,13.92,13.92,0,0,0-.88,5.08,12.92,12.92,0,0,0,.92,5,12,12,0,0,0,2.48,3.8,10.47,10.47,0,0,0,3.64,2.44,11.64,11.64,0,0,0,4.4.84,11.11,11.11,0,0,0,5.64-1.36,12,12,0,0,0,3.72-3.2l11.68,14a28.22,28.22,0,0,1-9.44,6.12,35.63,35.63,0,0,1-24.76.12,29.14,29.14,0,0,1-9.8-6.12,28.79,28.79,0,0,1-6.56-9.44,30.08,30.08,0,0,1-2.4-12.2,30.6,30.6,0,0,1,2.4-12.32,28.18,28.18,0,0,1,6.56-9.44,29,29,0,0,1,9.8-6,34,34,0,0,1,12-2.12m0-5a39.06,39.06,0,0,0-13.8,2.44A33.94,33.94,0,0,0,92.45,9.52a33.46,33.46,0,0,0-7.72,11.09,35.79,35.79,0,0,0-2.81,14.31,35.2,35.2,0,0,0,2.82,14.21,33.88,33.88,0,0,0,7.69,11,34.21,34.21,0,0,0,11.46,7.17,40.6,40.6,0,0,0,28.43-.16A33.31,33.31,0,0,0,143.41,60a5,5,0,0,0,.31-6.74L132,39.24a5,5,0,0,0-3.84-1.8h-.15a5,5,0,0,0-3.87,2,7.16,7.16,0,0,1-2.2,1.84,6.24,6.24,0,0,1-3.14.69,6.63,6.63,0,0,1-2.53-.48,5.5,5.5,0,0,1-1.93-1.29A7,7,0,0,1,112.93,38a8,8,0,0,1-.53-3.07,9.17,9.17,0,0,1,.54-3.28,6.38,6.38,0,0,1,1.36-2.19,5.6,5.6,0,0,1,1.93-1.29,6.85,6.85,0,0,1,2.61-.48,8,8,0,0,1,3.31.64A5.43,5.43,0,0,1,124.24,30a5,5,0,0,0,3.87,2h.09a5,5,0,0,0,3.85-1.81L143.73,16a5,5,0,0,0-.47-6.87,33.76,33.76,0,0,0-11.43-6.74A41.18,41.18,0,0,0,117.72,0Z"/><path class="cls-1" d="M201.24,6.6,180,32.52l22.32,30.72H178.92L163.8,40.68h-.16V63.24H145.16V6.6h18.4V27.48h.16L178.84,6.6h22.4m0-5h-22.4a5,5,0,0,0-4.05,2.07l-6.23,8.6V6.6a5,5,0,0,0-5-5h-18.4a5,5,0,0,0-5,5V63.24a5,5,0,0,0,5,5h18.48a5,5,0,0,0,5-5V56.88L174.77,66a5,5,0,0,0,4.15,2.22h23.36a5,5,0,0,0,4-7.94l-20-27.59L205.1,9.77a5,5,0,0,0-3.86-8.17Z"/><path class="cls-1" d="M278.44,6.6V41a25.53,25.53,0,0,1-1.72,9.4A20.89,20.89,0,0,1,271.64,58a24,24,0,0,1-8.36,5,33.62,33.62,0,0,1-11.64,1.84A32.87,32.87,0,0,1,240.08,63a23.22,23.22,0,0,1-8.2-5A19.92,19.92,0,0,1,227,50.4a27,27,0,0,1-1.6-9.4V6.6h19V38.92a9.43,9.43,0,0,0,2,6.36,7.92,7.92,0,0,0,11.12,0,9.49,9.49,0,0,0,2-6.36V6.6h19m0-5h-19a5,5,0,0,0-5,5V38.92a5.16,5.16,0,0,1-.75,3.1c-.14.16-.47.54-1.77.54s-1.63-.38-1.77-.54a5.16,5.16,0,0,1-.75-3.1V6.6a5,5,0,0,0-5-5h-19a5,5,0,0,0-5,5V41a32.22,32.22,0,0,0,1.9,11.12,25.11,25.11,0,0,0,6.09,9.42,28.11,28.11,0,0,0,9.94,6.14,38,38,0,0,0,13.31,2.16A38.6,38.6,0,0,0,265,67.69a29,29,0,0,0,10.09-6.11,26,26,0,0,0,6.28-9.34A30.58,30.58,0,0,0,283.44,41V6.6a5,5,0,0,0-5-5Z"/><path class="cls-1" d="M312.52,6.6a39.41,39.41,0,0,1,8.48.92,21.51,21.51,0,0,1,7.44,3.12,16.54,16.54,0,0,1,5.28,5.84,18.9,18.9,0,0,1,2,9.16,18.92,18.92,0,0,1-2,9,17.29,17.29,0,0,1-5.2,6A21.4,21.4,0,0,1,321.12,44a35.83,35.83,0,0,1-8.6,1h-5.36V63.24h-19V6.6h24.32m-5.36,23.92h4a7.55,7.55,0,0,0,4-1.08,3.9,3.9,0,0,0,1.8-3.64,4.4,4.4,0,0,0-.48-2.2,3.49,3.49,0,0,0-1.32-1.32,6,6,0,0,0-1.88-.68,11.35,11.35,0,0,0-2.08-.2h-4v9.12M312.52,1.6H288.2a5,5,0,0,0-5,5V63.24a5,5,0,0,0,5,5h19a5,5,0,0,0,5-5V50h.36a40.7,40.7,0,0,0,9.8-1.19,26.42,26.42,0,0,0,9.15-4.15,22.14,22.14,0,0,0,6.7-7.71,23.84,23.84,0,0,0,2.55-11.31,23.83,23.83,0,0,0-2.62-11.57,21.48,21.48,0,0,0-6.88-7.58,26.54,26.54,0,0,0-9.14-3.85,44.37,44.37,0,0,0-9.56-1Z"/><path class="cls-2" d="M24,45V63.24H5V6.6H29.32a39.34,39.34,0,0,1,8.48.92,21.51,21.51,0,0,1,7.44,3.12,16.36,16.36,0,0,1,5.28,5.84,18.9,18.9,0,0,1,2,9.16,18.8,18.8,0,0,1-2,9,17.29,17.29,0,0,1-5.2,6A21.4,21.4,0,0,1,37.92,44a35.83,35.83,0,0,1-8.6,1Zm0-23.6v9.12h4a7.55,7.55,0,0,0,4-1.08,3.9,3.9,0,0,0,1.8-3.64,4.4,4.4,0,0,0-.48-2.2,3.49,3.49,0,0,0-1.32-1.32A6,6,0,0,0,30,21.6,11.27,11.27,0,0,0,28,21.4Z"/><path class="cls-2" d="M59.72,6.6h19.2V63.24H59.72Z"/><path class="cls-2" d="M86.92,34.92a30.6,30.6,0,0,1,2.4-12.32,28.18,28.18,0,0,1,6.56-9.44,29,29,0,0,1,9.8-6,34,34,0,0,1,12-2.12,36.14,36.14,0,0,1,12.4,2.12,28.65,28.65,0,0,1,9.76,5.72L128.2,26.92a10.3,10.3,0,0,0-4-3.16,12.93,12.93,0,0,0-5.36-1.08,11.86,11.86,0,0,0-4.48.84A10.47,10.47,0,0,0,110.72,26a11.25,11.25,0,0,0-2.44,3.88,13.92,13.92,0,0,0-.88,5.08,12.92,12.92,0,0,0,.92,5,12,12,0,0,0,2.48,3.8,10.47,10.47,0,0,0,3.64,2.44,11.64,11.64,0,0,0,4.4.84,11.11,11.11,0,0,0,5.64-1.36,12,12,0,0,0,3.72-3.2l11.68,14a28.22,28.22,0,0,1-9.44,6.12,35.63,35.63,0,0,1-24.76.12,29.14,29.14,0,0,1-9.8-6.12,28.79,28.79,0,0,1-6.56-9.44A30.08,30.08,0,0,1,86.92,34.92Z"/><path class="cls-2" d="M163.8,40.68h-.16V63.24H145.16V6.6h18.4V27.48h.16L178.84,6.6h22.4L180,32.52l22.32,30.72H178.92Z"/><path class="cls-2" d="M251.64,64.84A32.87,32.87,0,0,1,240.08,63a23.22,23.22,0,0,1-8.2-5A19.92,19.92,0,0,1,227,50.4a27,27,0,0,1-1.6-9.4V6.6h19V38.92a9.43,9.43,0,0,0,2,6.36,7.92,7.92,0,0,0,11.12,0,9.49,9.49,0,0,0,2-6.36V6.6h19V41a25.53,25.53,0,0,1-1.72,9.4A20.89,20.89,0,0,1,271.64,58a24,24,0,0,1-8.36,5A33.62,33.62,0,0,1,251.64,64.84Z"/><path class="cls-2" d="M307.16,45V63.24h-19V6.6h24.32a39.41,39.41,0,0,1,8.48.92,21.51,21.51,0,0,1,7.44,3.12,16.54,16.54,0,0,1,5.28,5.84,18.9,18.9,0,0,1,2,9.16,18.92,18.92,0,0,1-2,9,17.29,17.29,0,0,1-5.2,6A21.4,21.4,0,0,1,321.12,44a35.83,35.83,0,0,1-8.6,1Zm0-23.6v9.12h4a7.55,7.55,0,0,0,4-1.08,3.9,3.9,0,0,0,1.8-3.64,4.4,4.4,0,0,0-.48-2.2,3.49,3.49,0,0,0-1.32-1.32,6,6,0,0,0-1.88-.68,11.35,11.35,0,0,0-2.08-.2Z"/></g></g></svg>