<svg version="1.1" xmlns="http://www.w3.org/2000/svg" xmlns:xlink="http://www.w3.org/1999/xlink" x="0px" y="0px" viewBox="0 0 815 184.8" style="enable-background:new 0 0 815 184.8;" xml:space="preserve" width="815" height="185">
<style type="text/css">
	.st0{fill:#EFE3D0;}
	.st1{fill:#C1A27C;}
	.st2{fill:#C4987A;}
	.st3{fill:#38C2C9;}
	.st4{fill:#F985AF;}
	.st5{fill:#FFFFFF;}
	.st6{fill:#F985AF;}
	.st7{fill:#7F5324;}
</style>
<path class="st0" d="M65.5,50.5h687.1c4.1,0,7.5,3.4,7.5,7.5v116.7c0,4.1-3.4,7.5-7.5,7.5H65.5c-4.1,0-7.5-3.4-7.5-7.5V58
	C58,53.9,61.4,50.5,65.5,50.5z"/>
<path class="st1" d="M752.6,53c2.8,0,5,2.2,5,5v116.8c0,2.8-2.2,5-5,5H65.5c-2.8,0-5-2.2-5-5V58c0-2.8,2.2-5,5-5H752.6 M752.6,48
	H65.5c-5.5,0-10,4.5-10,10v116.8c0,5.5,4.5,10,10,10h687.1c5.5,0,10-4.5,10-10V58C762.6,52.5,758.1,48,752.6,48z"/>
<path class="st2" d="M684.6,144.6L722.5,2.1c0.4-1.5,2-2.4,3.5-2l3.3,0.9c1.5,0.4,2.4,2,2,3.5L693.4,147c-0.4,1.5-2,2.4-3.5,2
	l-3.3-0.9C685.1,147.7,684.2,146.1,684.6,144.6z"/>
<path class="st3" d="M726.4,5.9l84.1,22.4c3.2,0.9,5.1,4.1,4.2,7.3l-19.3,72.6c-0.9,3.2-4.1,5.1-7.3,4.3L704,90
	c-3.2-0.9-5.1-4.1-4.2-7.3l19.3-72.6C719.9,6.9,723.2,5,726.4,5.9z"/>
<polygon class="st4" points="734.9,18.1 803.4,36.3 760.3,61.3 "/>
<path class="st5" d="M804.1,35.1l-66.7-17.8c-1.4-0.4-2.9,0.5-3.3,1.9l-16.8,63c-0.4,1.4,0.5,2.9,1.9,3.3l66.7,17.8
	c1.4,0.4,2.9-0.5,3.3-1.9c0,0,0,0,0,0L806,38.4C806.4,37,805.6,35.5,804.1,35.1C804.1,35.1,804.1,35.1,804.1,35.1z M802.7,37
	L762,60.5c-0.3,0.2-0.6,0.1-0.7-0.2c0,0,0,0,0,0l-23.6-40.7L802.7,37z M786.5,101.2l-66.7-17.8c-0.3-0.1-0.5-0.4-0.4-0.7l16.5-61.9
	l23.5,40.5c0.7,1.3,2.4,1.7,3.7,1c0,0,0,0,0,0L803.6,39l-16.5,61.9C787,101.1,786.7,101.3,786.5,101.2z"/>
<path class="st5" d="M785.8,103.9l-66.7-17.8c-1.7-0.5-2.8-2.3-2.3-4l16.8-62.9c0.5-1.7,2.3-2.8,4-2.3l66.7,17.7
	c1.7,0.5,2.8,2.3,2.3,4l-16.8,62.9C789.4,103.2,787.6,104.3,785.8,103.9C785.8,103.9,785.8,103.9,785.8,103.9z M737.2,18
	c-1.1-0.3-2.3,0.4-2.6,1.5c0,0,0,0,0,0l-16.8,62.9c-0.3,1.1,0.4,2.3,1.5,2.6l66.7,17.8c1.1,0.3,2.3-0.4,2.6-1.5l16.8-62.9
	c0.3-1.1-0.4-2.3-1.5-2.6c0,0,0,0,0,0L737.2,18z M786.3,101.9L719.6,84c-0.6-0.2-0.9-0.8-0.8-1.4l16.8-63.2l24.2,41.7
	c0.6,1,1.9,1.3,2.9,0.8l41.7-24.2L787.7,101c-0.2,0.6-0.8,0.9-1.4,0.8V101.9z M736.1,22.3l-16.1,60.6l66.6,17.7l16.1-60.6
	l-39.4,22.9c-1.6,0.9-3.6,0.4-4.5-1.2L736.1,22.3z M761.4,61.1c-0.3-0.1-0.5-0.3-0.7-0.5l-24.3-41.9l67.7,18L762.3,61
	C762,61.2,761.7,61.2,761.4,61.1z M738.9,20.5L761.7,60l39.5-22.9L738.9,20.5z"/>
<path class="st6" d="M115.4,65l-17.5-6.1l-0.5-0.2c0-0.2-0.1-0.3-0.2-0.5l-6.1-17.4c-2-5.8-5.3-5.8-7.4,0l-6.1,17.4
	c-0.1,0.2-0.1,0.3-0.2,0.5L77,58.9L59.5,65c-5.8,2-5.8,5.3,0,7.4l17.4,6.1l0.5,0.2c0,0.2,0.1,0.3,0.2,0.5l6.1,17.4
	c2,5.8,5.3,5.8,7.4,0l6.1-17.4c0.1-0.2,0.1-0.3,0.2-0.5l0.5-0.2l17.4-6.1C121.1,70.3,121.1,67,115.4,65z"/>
<path class="st6" d="M61.2,101.7L49,97.4l-0.4-0.1c0-0.1-0.1-0.2-0.1-0.4l-4.3-12.2c-1.4-4-3.8-4-5.2,0l-4.3,12.2l-0.1,0.4l-0.4,0.1
	L22,101.7c-4,1.4-4,3.7,0,5.2l12.2,4.3l0.4,0.1l0.1,0.4l4.3,12.2c1.4,4.1,3.7,4.1,5.2,0l4.3-12.2c0-0.1,0.1-0.2,0.1-0.4l0.4-0.1
	l12.2-4.3C65.3,105.5,65.3,103.1,61.2,101.7z"/>
<path class="st7" d="M342,140.5c7.9,0,9.1-1.7,10.3-12.6c3.6,2.1,7.6,3.6,11.6,4.4c-2,15.3-6,19.7-21.3,19.7H318
	c-16.8,0-21.8-3.4-21.8-16.8V99.7h12v9.5h33.1V94.6h-47.7V83.1h59.7v41h-12v-3.6h-33.1v14.6c0,4.9,1.1,5.4,9.9,5.4L342,140.5z"/>
<path class="st7" d="M428.5,99.2v6.6H442v11h-39.3v-11h13.6v-6.6h-15l1.7,1.1c-4.1,6.8-8.9,13.2-14.2,19.1l11.5-1.7
	c0,3.3,0.2,6.7,0.6,10c-21.3,3.7-25.2,4.8-27.8,6.1c-1-3.7-2.3-7.4-3.8-11c2.5-0.5,4.1-2.1,6.9-5c1.8-1.9,3.4-3.8,5-5.9
	c-5.5,0.7-7.5,1.2-8.8,1.8c-1.1-3.8-2.4-7.5-4-11.2c1.9-0.6,3.3-2,5.1-4.4c4.1-6.1,7.3-12.8,9.7-19.8l11.9,4.8
	c-3.1,6.6-6.9,12.9-11.3,18.8l4.4-0.3c1.7-2.6,3.2-5.4,4.6-8.2l7.7,5.1V88.1h15.8v-9.2h12.1v9.3h15.7v11.1H428.5z M369.4,140
	c8.2-1.1,20.4-3.2,31.7-5.2l0.9,10.8c-10.5,2.3-22,4.4-30.8,6.3L369.4,140z M404.5,121.4h36.3v32.5H429v-3.1h-13.2v3.4h-11.3V121.4z
	 M415.8,131.7v8.8H429v-8.8H415.8z"/>
<path class="st7" d="M499.5,128.3c7.3,6.3,15.8,11.2,25,14.4c-3.2,3-6,6.5-8.3,10.2c-8.8-4.1-16.8-9.8-23.5-16.7v18h-12v-17.4
	c-6.8,6.7-14.8,12.1-23.6,16c-2.3-3.5-5-6.8-8-9.8c9.3-3.2,17.9-8.2,25.3-14.7h-16.7v-27.1h23.1v-4.9h-28.1V85.8h28.1v-6.9h12.1v6.8
	h28.5v10.6h-28.5v4.9h24.2v27.1H499.5z M468.8,118.3h11.9v-7h-11.9V118.3z M492.7,111.3v7H505v-7H492.7z"/>
</svg>
