<svg version="1.1" xmlns="http://www.w3.org/2000/svg" xmlns:xlink="http://www.w3.org/1999/xlink" x="0px" y="0px" viewBox="0 0 62.1 67.6" style="enable-background:new 0 0 62.1 67.6;" xml:space="preserve" width="63" height="68">
<style type="text/css">
	.st0{fill:#2D82CC;}
	.st1{fill:#FFFFFF;}
</style>
<path class="st0" d="M59.7,31.3l-19.8-9.7v-9.3c0-3.1-1.1-6.1-3-8.6l-1.2-1.4C34.6,0.8,32.9,0,31,0s-3.6,0.8-4.7,2.3l-1.2,1.5
	c-1.9,2.4-3,5.5-3,8.6v9.3L2.4,31.4C1,32.1,0,33.7,0,35.4v5.9c0,2,1.6,3.6,3.6,3.6c0.2,0,0.5,0,0.9-0.1l17.8-4.4v12.2l-4.7,2.8
	c-1.3,0.8-2.2,2.3-2.2,3.7v4.4c0,2.3,1.8,4.2,4.2,4.2c0.3,0,0.7,0,0.9-0.1l10.2-2.3l0.4,0l10.4,2.3c1.3,0.2,2.5-0.1,3.5-0.9h0.1
	l0.2-0.2c0.8-0.8,1.2-1.9,1.2-2.9v-4.3c0-1.5-0.8-3-2.2-3.9l-4.7-2.8V40.2l17.8,4.4c1,0.2,2.1,0,3-0.6c0.9-0.6,1.4-1.7,1.4-2.8v-5.9
	C62.1,33.6,61.2,32.2,59.7,31.3z"/>
<g id="パス_2825">
	<path class="st1" d="M32.9,6.9c1.2,1.5,1.9,3.5,1.9,5.4v11.1c0,0.8,0.5,1.6,1.2,1.9l21,10.3v3.5l-19.6-4.8c-0.6-0.2-1.3,0-1.8,0.4
		s-0.8,1-0.8,1.7V54c0,0.8,0.4,1.5,1,1.8l5.7,3.4V62l-9.3-2.1c-0.8-0.2-1.7-0.2-2.5,0L20.4,62v-2.8l5.7-3.4c0.7-0.4,1-1.1,1-1.8
		V36.6c0-0.7-0.3-1.3-0.8-1.7c-0.5-0.4-1.2-0.6-1.8-0.4L5.1,39.3v-3.5l21-10.3c0.7-0.4,1.2-1.1,1.2-1.9V12.4c0-2,0.7-3.9,1.9-5.4
		l1.2-1.5c0.2-0.2,0.4-0.3,0.7-0.3c0.3,0,0.5,0.1,0.7,0.3L32.9,6.9z"/>
</g>
</svg>